G75*
G70*
%OFA0B0*%
%FSLAX24Y24*%
%IPPOS*%
%LPD*%
%AMOC8*
5,1,8,0,0,1.08239X$1,22.5*
%
%ADD10C,0.0050*%
%ADD11C,0.0060*%
%ADD12R,0.0340X0.0240*%
%ADD13C,0.0040*%
D10*
X008196Y015761D02*
X008331Y015761D01*
X008331Y015671D02*
X008331Y015941D01*
X008196Y015941D01*
X008151Y015896D01*
X008151Y015806D01*
X008196Y015761D01*
X008446Y015761D02*
X008446Y015941D01*
X008626Y015941D02*
X008626Y015806D01*
X008581Y015761D01*
X008446Y015761D01*
X008632Y016356D02*
X008812Y016356D01*
X008632Y016536D01*
X008632Y016581D01*
X008677Y016626D01*
X008767Y016626D01*
X008812Y016581D01*
X008927Y016581D02*
X008972Y016626D01*
X009062Y016626D01*
X009107Y016581D01*
X009222Y016581D02*
X009267Y016626D01*
X009357Y016626D01*
X009402Y016581D01*
X009402Y016401D01*
X009222Y016581D01*
X009222Y016401D01*
X009267Y016356D01*
X009357Y016356D01*
X009402Y016401D01*
X009516Y016356D02*
X009696Y016356D01*
X009516Y016536D01*
X009516Y016581D01*
X009561Y016626D01*
X009651Y016626D01*
X009696Y016581D01*
X010105Y016581D02*
X010105Y016491D01*
X010151Y016446D01*
X010286Y016446D01*
X010286Y016356D02*
X010286Y016626D01*
X010151Y016626D01*
X010105Y016581D01*
X010196Y016446D02*
X010105Y016356D01*
X009956Y015941D02*
X009821Y015941D01*
X009866Y015851D02*
X009956Y015851D01*
X010001Y015896D01*
X009956Y015941D01*
X009866Y015851D02*
X009821Y015806D01*
X009866Y015761D01*
X010001Y015761D01*
X009706Y015761D02*
X009616Y015761D01*
X009661Y015761D02*
X009661Y015941D01*
X009706Y015941D01*
X009661Y016031D02*
X009661Y016076D01*
X009510Y015896D02*
X009510Y015806D01*
X009465Y015761D01*
X009330Y015761D01*
X009330Y016031D01*
X009330Y015941D02*
X009465Y015941D01*
X009510Y015896D01*
X009215Y015896D02*
X009215Y015806D01*
X009170Y015761D01*
X009080Y015761D01*
X009035Y015851D02*
X009215Y015851D01*
X009215Y015896D02*
X009170Y015941D01*
X009080Y015941D01*
X009035Y015896D01*
X009035Y015851D01*
X009062Y016356D02*
X008972Y016356D01*
X008927Y016401D01*
X008927Y016446D01*
X008972Y016491D01*
X009017Y016491D01*
X008972Y016491D02*
X008927Y016536D01*
X008927Y016581D01*
X009107Y016401D02*
X009062Y016356D01*
X008223Y016401D02*
X008178Y016356D01*
X008088Y016356D01*
X008043Y016401D01*
X008043Y016446D01*
X008088Y016491D01*
X008133Y016491D01*
X008088Y016491D02*
X008043Y016536D01*
X008043Y016581D01*
X008088Y016626D01*
X008178Y016626D01*
X008223Y016581D01*
X007928Y016626D02*
X007928Y016446D01*
X007838Y016356D01*
X007748Y016446D01*
X007748Y016626D01*
X007339Y016626D02*
X007339Y016356D01*
X007159Y016356D01*
X007044Y016356D02*
X006954Y016356D01*
X006999Y016356D02*
X006999Y016536D01*
X007044Y016536D01*
X006999Y016626D02*
X006999Y016671D01*
X006553Y016491D02*
X006553Y016401D01*
X006508Y016356D01*
X006373Y016356D01*
X006259Y016401D02*
X006214Y016356D01*
X006124Y016356D01*
X006079Y016401D01*
X006079Y016491D01*
X006124Y016536D01*
X006214Y016536D01*
X006259Y016491D01*
X006259Y016401D01*
X006373Y016536D02*
X006508Y016536D01*
X006553Y016491D01*
X005964Y016536D02*
X005919Y016536D01*
X005919Y016356D01*
X005964Y016356D02*
X005874Y016356D01*
X005768Y016356D02*
X005768Y016536D01*
X005633Y016536D01*
X005588Y016491D01*
X005588Y016356D01*
X005178Y016401D02*
X005133Y016356D01*
X004998Y016356D01*
X004884Y016401D02*
X004884Y016491D01*
X004839Y016536D01*
X004749Y016536D01*
X004704Y016491D01*
X004704Y016446D01*
X004884Y016446D01*
X004884Y016401D02*
X004839Y016356D01*
X004749Y016356D01*
X004589Y016356D02*
X004499Y016356D01*
X004544Y016356D02*
X004544Y016626D01*
X004589Y016626D01*
X004393Y016626D02*
X004348Y016626D01*
X004348Y016356D01*
X004393Y016356D02*
X004303Y016356D01*
X004998Y016536D02*
X005133Y016536D01*
X005178Y016491D01*
X005178Y016401D01*
X005919Y016626D02*
X005919Y016671D01*
X010400Y016581D02*
X010445Y016626D01*
X010535Y016626D01*
X010580Y016581D01*
X010580Y016401D01*
X010535Y016356D01*
X010445Y016356D01*
X010400Y016401D01*
X010500Y015986D02*
X010500Y015806D01*
X010590Y015896D02*
X010410Y015896D01*
X012479Y013341D02*
X012745Y013294D01*
X012729Y013206D02*
X012761Y013383D01*
X012736Y013504D02*
X012788Y013540D01*
X012804Y013629D01*
X012767Y013681D01*
X012559Y013535D01*
X012736Y013504D01*
X012583Y013414D02*
X012479Y013341D01*
X012559Y013535D02*
X012522Y013587D01*
X012538Y013676D01*
X012590Y013712D01*
X012767Y013681D01*
X012832Y013786D02*
X012863Y013963D01*
X012654Y013817D01*
X012610Y013825D01*
X012573Y013877D01*
X012589Y013966D01*
X012641Y014002D01*
X012888Y014366D02*
X012896Y014411D01*
X012940Y014403D01*
X012932Y014358D01*
X012888Y014366D01*
X012932Y014358D02*
X013037Y014431D01*
X012968Y014560D02*
X012835Y014583D01*
X012798Y014635D01*
X012822Y014769D01*
X012999Y014737D01*
X012975Y014858D02*
X012886Y014874D01*
X012850Y014926D01*
X012865Y015014D01*
X012917Y015051D01*
X013006Y015035D01*
X013043Y014983D01*
X013027Y014894D01*
X012975Y014858D01*
X013069Y015132D02*
X013032Y015184D01*
X012855Y015216D01*
X012907Y015252D02*
X012891Y015164D01*
X012927Y015365D02*
X012950Y015498D01*
X013003Y015535D01*
X013039Y015482D01*
X013024Y015394D01*
X013060Y015341D01*
X013112Y015378D01*
X013136Y015511D01*
X013067Y015640D02*
X013098Y015817D01*
X013054Y015825D02*
X013002Y015788D01*
X012986Y015700D01*
X013022Y015647D01*
X013067Y015640D01*
X013163Y015668D02*
X013179Y015757D01*
X013142Y015809D01*
X013054Y015825D01*
X012941Y015961D02*
X013207Y015914D01*
X013134Y016018D01*
X013238Y016091D01*
X012972Y016138D01*
X013176Y016518D02*
X013220Y016510D01*
X013252Y016688D01*
X013296Y016680D02*
X013207Y016695D01*
X013155Y016659D01*
X013139Y016570D01*
X013176Y016518D01*
X013317Y016539D02*
X013332Y016628D01*
X013296Y016680D01*
X013359Y016781D02*
X013294Y016929D01*
X013182Y016812D01*
X013117Y016961D02*
X013383Y016914D01*
X013403Y017026D02*
X013225Y017058D01*
X013257Y017235D02*
X013390Y017212D01*
X013426Y017160D01*
X013403Y017026D01*
X013454Y017317D02*
X013485Y017494D01*
X013219Y017541D01*
X013379Y017928D02*
X013600Y017889D01*
X013653Y017926D01*
X013660Y017970D01*
X013580Y018030D02*
X013543Y018082D01*
X013410Y018106D01*
X013474Y018211D02*
X013438Y018263D01*
X013461Y018396D01*
X013372Y018412D02*
X013639Y018365D01*
X013615Y018232D01*
X013563Y018195D01*
X013474Y018211D01*
X013580Y018030D02*
X013556Y017897D01*
X013710Y018768D02*
X013576Y018791D01*
X013540Y018843D01*
X013563Y018976D01*
X013741Y018945D01*
X013761Y019058D02*
X013784Y019191D01*
X013748Y019243D01*
X013659Y019259D01*
X013607Y019222D01*
X013583Y019089D01*
X013805Y019050D01*
X013857Y019087D01*
X013865Y019131D01*
X013810Y019340D02*
X013826Y019429D01*
X013818Y019384D02*
X013641Y019416D01*
X013649Y019460D01*
X013552Y019431D02*
X013508Y019439D01*
X013669Y019573D02*
X013692Y019706D01*
X013744Y019742D01*
X013781Y019690D01*
X013765Y019602D01*
X013802Y019549D01*
X013854Y019586D01*
X013877Y019719D01*
X013808Y019847D02*
X013840Y020025D01*
X013884Y020017D02*
X013795Y020033D01*
X013743Y019996D01*
X013727Y019907D01*
X013764Y019855D01*
X013808Y019847D01*
X013905Y019876D02*
X013921Y019965D01*
X013884Y020017D01*
X013948Y020122D02*
X013682Y020169D01*
X013771Y020153D02*
X013794Y020286D01*
X013846Y020323D01*
X013935Y020307D01*
X013972Y020255D01*
X013948Y020122D01*
X013962Y020718D02*
X013917Y020726D01*
X013881Y020778D01*
X013897Y020867D01*
X013949Y020903D01*
X014037Y020888D01*
X014074Y020835D01*
X014058Y020747D01*
X013962Y020718D02*
X013993Y020895D01*
X013924Y021024D02*
X013948Y021157D01*
X014000Y021193D01*
X014089Y021178D01*
X014125Y021126D01*
X014102Y020993D01*
X014146Y020985D02*
X013924Y021024D01*
X014146Y020985D02*
X014198Y021021D01*
X014206Y021066D01*
X014153Y021283D02*
X014176Y021416D01*
X014140Y021468D01*
X014051Y021484D01*
X013999Y021447D01*
X013975Y021314D01*
X013887Y021330D02*
X014153Y021283D01*
X014204Y021573D02*
X014071Y021596D01*
X014034Y021649D01*
X014050Y021737D01*
X014139Y021722D02*
X014115Y021589D01*
X014204Y021573D02*
X014227Y021706D01*
X014191Y021758D01*
X014139Y021722D01*
X014166Y021879D02*
X014211Y021871D01*
X014263Y021907D01*
X014286Y022041D01*
X014020Y022087D01*
X013997Y021954D01*
X014033Y021902D01*
X014078Y021894D01*
X014130Y021931D01*
X014153Y022064D01*
X014130Y021931D02*
X014166Y021879D01*
X012532Y013124D02*
X012428Y013051D01*
X012694Y013004D01*
X012709Y013093D02*
X012678Y012915D01*
D11*
X010049Y013465D02*
X009923Y013646D01*
X009789Y013821D01*
X009646Y013989D01*
X009496Y014151D01*
X009338Y014305D01*
X009174Y014452D01*
X009002Y014591D01*
X008824Y014722D01*
X008641Y014844D01*
X008451Y014958D01*
X008257Y015062D01*
X008058Y015157D01*
X007855Y015243D01*
X007647Y015319D01*
X007437Y015386D01*
X007223Y015442D01*
X007008Y015488D01*
X006790Y015524D01*
X006571Y015550D01*
X006351Y015566D01*
X006130Y015571D01*
X010041Y008264D02*
X009914Y008084D01*
X009780Y007910D01*
X009637Y007742D01*
X009487Y007582D01*
X009330Y007428D01*
X009165Y007282D01*
X008994Y007144D01*
X008816Y007014D01*
X008633Y006893D01*
X008444Y006780D01*
X008250Y006676D01*
X008052Y006582D01*
X007849Y006497D01*
X007642Y006421D01*
X007432Y006355D01*
X007220Y006299D01*
X007005Y006253D01*
X006788Y006217D01*
X006569Y006192D01*
X006350Y006176D01*
X006130Y006171D01*
X005903Y006176D01*
X005676Y006193D01*
X005451Y006220D01*
X005227Y006259D01*
X005005Y006308D01*
X004786Y006367D01*
X004570Y006437D01*
X004358Y006518D01*
X004149Y006609D01*
X003946Y006709D01*
X003747Y006820D01*
X003554Y006940D01*
X003367Y007069D01*
X003187Y007207D01*
X003013Y007353D01*
X002847Y007508D01*
X002688Y007670D01*
X002538Y007840D01*
X002395Y008017D01*
X002262Y008201D01*
X002138Y008391D01*
X002022Y008587D01*
X001917Y008788D01*
X001821Y008994D01*
X001735Y009204D01*
X001660Y009419D01*
X001595Y009636D01*
X001541Y009857D01*
X001497Y010080D01*
X001464Y010304D01*
X001442Y010531D01*
X001431Y010757D01*
X001431Y010985D01*
X001442Y011211D01*
X001464Y011438D01*
X001497Y011662D01*
X001541Y011885D01*
X001595Y012106D01*
X001660Y012323D01*
X001735Y012538D01*
X001821Y012748D01*
X001917Y012954D01*
X002022Y013155D01*
X002138Y013351D01*
X002262Y013541D01*
X002395Y013725D01*
X002538Y013902D01*
X002688Y014072D01*
X002847Y014234D01*
X003013Y014389D01*
X003187Y014535D01*
X003367Y014673D01*
X003554Y014802D01*
X003747Y014922D01*
X003946Y015033D01*
X004149Y015133D01*
X004358Y015224D01*
X004570Y015305D01*
X004786Y015375D01*
X005005Y015434D01*
X005227Y015483D01*
X005451Y015522D01*
X005676Y015549D01*
X005903Y015566D01*
X006130Y015571D01*
X010068Y013471D02*
X011980Y013471D01*
X011980Y012983D01*
X011980Y008771D02*
X011980Y008271D01*
X010068Y008271D01*
X013215Y005047D02*
X013109Y004941D01*
X013109Y004870D01*
X011766Y003527D01*
X011695Y003527D01*
X011589Y003421D01*
X011578Y003407D01*
X011569Y003392D01*
X011563Y003376D01*
X011560Y003359D01*
X011560Y003341D01*
X011563Y003324D01*
X011569Y003308D01*
X011578Y003293D01*
X011589Y003279D01*
X012084Y002784D01*
X012098Y002773D01*
X012113Y002764D01*
X012129Y002758D01*
X012146Y002755D01*
X012164Y002755D01*
X012181Y002758D01*
X012197Y002764D01*
X012212Y002773D01*
X012226Y002784D01*
X012225Y002784D02*
X012331Y002891D01*
X012331Y002961D01*
X013675Y004305D01*
X013746Y004305D01*
X013852Y004411D01*
X013852Y004410D02*
X013863Y004424D01*
X013872Y004439D01*
X013878Y004455D01*
X013881Y004472D01*
X013881Y004490D01*
X013878Y004507D01*
X013872Y004523D01*
X013863Y004538D01*
X013852Y004552D01*
X013357Y005047D01*
X013343Y005058D01*
X013328Y005067D01*
X013312Y005073D01*
X013295Y005076D01*
X013277Y005076D01*
X013260Y005073D01*
X013244Y005067D01*
X013229Y005058D01*
X013215Y005047D01*
D12*
G36*
X013929Y004955D02*
X013689Y004715D01*
X013519Y004885D01*
X013759Y005125D01*
X013929Y004955D01*
G37*
G36*
X011921Y002947D02*
X011681Y002707D01*
X011511Y002877D01*
X011751Y003117D01*
X011921Y002947D01*
G37*
D13*
X011962Y003995D02*
X011962Y004090D01*
X011939Y004066D02*
X012009Y004137D01*
X012056Y004090D02*
X011915Y004231D01*
X011844Y004160D01*
X011844Y004113D01*
X011891Y004066D01*
X011939Y004066D01*
X012251Y004331D02*
X012157Y004426D01*
X012345Y004426D01*
X012345Y004379D01*
X012298Y004331D01*
X012251Y004331D01*
X012345Y004426D02*
X012251Y004520D01*
X012204Y004520D01*
X012157Y004473D01*
X012157Y004426D01*
X012313Y004582D02*
X012502Y004582D01*
X012502Y004535D01*
X012454Y004488D01*
X012407Y004488D01*
X012313Y004582D01*
X012313Y004629D01*
X012360Y004676D01*
X012407Y004676D01*
X012502Y004582D01*
X012587Y004620D02*
X012681Y004715D01*
X012634Y004668D02*
X012493Y004809D01*
X012587Y004809D01*
M02*
