G75*
G70*
%OFA0B0*%
%FSLAX24Y24*%
%IPPOS*%
%LPD*%
%AMOC8*
5,1,8,0,0,1.08239X$1,22.5*
%
%ADD10C,0.1095*%
%ADD11R,0.1600X0.1600*%
%ADD12C,0.0700*%
%ADD13OC8,0.0480*%
%ADD14C,0.0740*%
%ADD15C,0.0320*%
%ADD16C,0.0240*%
%ADD17C,0.0160*%
D10*
X008795Y014015D02*
X008795Y015110D01*
X017063Y015110D02*
X017063Y014015D01*
D11*
X012929Y014563D03*
D12*
X003188Y013688D03*
X003188Y012688D03*
D13*
X011938Y009688D03*
X011938Y005688D03*
D14*
X008270Y010980D03*
X007563Y011688D03*
X006855Y012395D03*
D15*
X007563Y011688D02*
X014188Y011688D01*
X017063Y014563D01*
D16*
X012929Y014563D02*
X011054Y012688D01*
X008188Y012688D01*
X007688Y013188D01*
X006188Y013188D01*
X005688Y012688D01*
X003188Y012688D01*
D17*
X004426Y001159D02*
X004434Y001103D01*
X004447Y001086D01*
X004739Y001212D01*
X006439Y002061D01*
X006453Y002074D01*
X006489Y002086D01*
X006522Y002103D01*
X006541Y002104D01*
X008536Y002798D01*
X008547Y002806D01*
X008588Y002816D01*
X008628Y002830D01*
X008642Y002829D01*
X010380Y003257D01*
X010382Y003259D01*
X010433Y003270D01*
X010485Y003283D01*
X010488Y003282D01*
X012052Y003632D01*
X012296Y004328D01*
X012464Y005310D01*
X012462Y005319D01*
X012473Y005364D01*
X012481Y005410D01*
X012486Y005418D01*
X012887Y007078D01*
X012886Y007097D01*
X012900Y007131D01*
X012908Y007167D01*
X012920Y007183D01*
X013522Y008731D01*
X013523Y008746D01*
X013542Y008783D01*
X013557Y008821D01*
X013567Y008832D01*
X014053Y009775D01*
X014069Y009815D01*
X014078Y009824D01*
X014084Y009835D01*
X014117Y009863D01*
X014148Y009894D01*
X014159Y009899D01*
X014169Y009907D01*
X014210Y009920D01*
X014756Y010150D01*
X015686Y010658D01*
X016509Y011650D01*
X016998Y012456D01*
X017013Y012490D01*
X017027Y012504D01*
X017037Y012520D01*
X017067Y012542D01*
X017488Y012949D01*
X017506Y012974D01*
X017527Y012987D01*
X017545Y013005D01*
X017574Y013016D01*
X017600Y013033D01*
X017625Y013037D01*
X017649Y013046D01*
X017680Y013045D01*
X018083Y013111D01*
X018117Y013121D01*
X018137Y013120D01*
X018158Y013123D01*
X018193Y013115D01*
X018228Y013111D01*
X018246Y013102D01*
X018266Y013097D01*
X018295Y013076D01*
X020160Y012100D01*
X021804Y011366D01*
X023794Y010956D01*
X024287Y010929D01*
X025632Y011100D01*
X026985Y011692D01*
X027882Y012617D01*
X028366Y013472D01*
X028528Y013850D01*
X028533Y013875D01*
X028550Y013900D01*
X028562Y013929D01*
X028580Y013947D01*
X028673Y014088D01*
X028622Y014063D01*
X028295Y013546D01*
X028281Y013513D01*
X028266Y013499D01*
X028255Y013481D01*
X028226Y013461D01*
X026957Y012250D01*
X026955Y012244D01*
X026917Y012211D01*
X026881Y012177D01*
X026875Y012175D01*
X026871Y012171D01*
X026823Y012154D01*
X026777Y012136D01*
X026771Y012136D01*
X025790Y011800D01*
X025762Y011785D01*
X025738Y011782D01*
X025716Y011775D01*
X025683Y011777D01*
X024840Y011689D01*
X024788Y011683D01*
X024784Y011684D01*
X024781Y011683D01*
X024731Y011698D01*
X023783Y011957D01*
X023768Y011956D01*
X023730Y011971D01*
X023690Y011982D01*
X023678Y011991D01*
X022812Y012327D01*
X022784Y012332D01*
X022760Y012347D01*
X022735Y012357D01*
X022714Y012376D01*
X021032Y013449D01*
X021018Y013453D01*
X020985Y013479D01*
X020950Y013501D01*
X020942Y013513D01*
X020010Y014247D01*
X019990Y014257D01*
X019967Y014281D01*
X019941Y014302D01*
X019929Y014322D01*
X018520Y015849D01*
X016834Y017387D01*
X015490Y018293D01*
X014033Y018963D01*
X013282Y019158D01*
X012420Y019158D01*
X011575Y018961D01*
X010574Y018532D01*
X009724Y017936D01*
X008834Y016960D01*
X008071Y015669D01*
X007946Y015445D01*
X007945Y015438D01*
X007919Y015396D01*
X007895Y015353D01*
X007890Y015349D01*
X007449Y014632D01*
X007438Y014604D01*
X007420Y014585D01*
X007407Y014563D01*
X007382Y014545D01*
X006714Y013850D01*
X006712Y013845D01*
X006676Y013810D01*
X006641Y013773D01*
X006636Y013771D01*
X006632Y013767D01*
X006585Y013749D01*
X006539Y013729D01*
X006533Y013729D01*
X005775Y013431D01*
X005761Y013420D01*
X005724Y013411D01*
X005688Y013397D01*
X005670Y013397D01*
X005653Y013392D01*
X005615Y013398D01*
X005577Y013399D01*
X005560Y013406D01*
X004972Y013490D01*
X004920Y013496D01*
X004917Y013498D01*
X004913Y013498D01*
X004869Y013524D01*
X004336Y013820D01*
X004291Y013844D01*
X004287Y013847D01*
X004283Y013850D01*
X004251Y013890D01*
X004218Y013928D01*
X004217Y013933D01*
X004214Y013937D01*
X004200Y013986D01*
X004070Y014386D01*
X004060Y014406D01*
X004042Y014431D01*
X004036Y014455D01*
X004025Y014477D01*
X004022Y014509D01*
X004015Y014539D01*
X004019Y014564D01*
X004017Y014588D01*
X004027Y014618D01*
X004041Y014716D01*
X004040Y014743D01*
X004050Y014770D01*
X004054Y014799D01*
X004068Y014823D01*
X004077Y014848D01*
X004096Y014870D01*
X004111Y014895D01*
X004133Y014911D01*
X004373Y015177D01*
X004557Y015414D01*
X004715Y015757D01*
X004798Y016035D01*
X004863Y016270D01*
X004478Y015962D01*
X004067Y015523D01*
X003857Y015129D01*
X003849Y015102D01*
X003831Y015081D01*
X003818Y015057D01*
X003796Y015038D01*
X003595Y014795D01*
X003585Y014775D01*
X003559Y014752D01*
X003538Y014726D01*
X003518Y014716D01*
X003501Y014701D01*
X003469Y014690D01*
X003439Y014674D01*
X003417Y014672D01*
X003325Y014640D01*
X003304Y014627D01*
X003273Y014622D01*
X003244Y014612D01*
X003218Y014614D01*
X002944Y014571D01*
X002782Y014402D01*
X002433Y014019D01*
X002362Y013924D01*
X001940Y013182D01*
X001936Y013166D01*
X001913Y013135D01*
X001893Y013101D01*
X001880Y013090D01*
X001413Y012459D01*
X001405Y012439D01*
X001380Y012414D01*
X001360Y012386D01*
X001341Y012375D01*
X001169Y012203D01*
X001235Y012129D01*
X001342Y012128D01*
X002062Y012322D01*
X002090Y012335D01*
X002115Y012336D01*
X002139Y012342D01*
X002170Y012338D01*
X002708Y012361D01*
X002725Y012366D01*
X002763Y012363D01*
X002792Y012364D01*
X002751Y012420D01*
X002715Y012492D01*
X002690Y012568D01*
X002678Y012647D01*
X002678Y012687D01*
X003187Y012687D01*
X003187Y012688D01*
X002678Y012688D01*
X002678Y012728D01*
X002690Y012807D01*
X002715Y012883D01*
X002751Y012955D01*
X002799Y013020D01*
X002855Y013077D01*
X002920Y013124D01*
X002959Y013144D01*
X002853Y013187D01*
X002687Y013353D01*
X002598Y013570D01*
X002598Y013805D01*
X002687Y014022D01*
X002853Y014188D01*
X003070Y014278D01*
X003305Y014278D01*
X003522Y014188D01*
X003688Y014022D01*
X003778Y013805D01*
X003778Y013570D01*
X003688Y013353D01*
X003522Y013187D01*
X003416Y013144D01*
X003455Y013124D01*
X003520Y013077D01*
X003577Y013020D01*
X003624Y012955D01*
X003660Y012883D01*
X003685Y012807D01*
X003698Y012728D01*
X003698Y012688D01*
X003188Y012688D01*
X003188Y012687D01*
X003698Y012687D01*
X003698Y012647D01*
X003685Y012568D01*
X003660Y012492D01*
X003624Y012420D01*
X003577Y012355D01*
X003520Y012299D01*
X003508Y012290D01*
X003633Y012275D01*
X003684Y012270D01*
X003684Y012269D01*
X003685Y012269D01*
X003736Y012241D01*
X003781Y012216D01*
X003782Y012216D01*
X003782Y012215D01*
X003818Y012170D01*
X004149Y011756D01*
X004160Y011749D01*
X004184Y011713D01*
X004211Y011679D01*
X004214Y011667D01*
X004299Y011541D01*
X004610Y011201D01*
X004779Y011032D01*
X005271Y010813D01*
X005661Y010646D01*
X005687Y010641D01*
X005711Y010625D01*
X005739Y010613D01*
X005757Y010594D01*
X006070Y010386D01*
X006096Y010375D01*
X006116Y010355D01*
X006139Y010340D01*
X006155Y010316D01*
X006727Y009744D01*
X006881Y009678D01*
X007417Y009480D01*
X007444Y009476D01*
X007469Y009461D01*
X007497Y009451D01*
X007516Y009433D01*
X007789Y009269D01*
X007836Y009242D01*
X007837Y009240D01*
X007839Y009239D01*
X007871Y009197D01*
X008155Y008827D01*
X008179Y008805D01*
X008189Y008783D01*
X008203Y008764D01*
X008212Y008733D01*
X008530Y008038D01*
X008818Y007463D01*
X009188Y006951D01*
X009662Y006398D01*
X009754Y006374D01*
X009795Y006383D01*
X009863Y006423D01*
X009953Y006531D01*
X010084Y006872D01*
X010128Y007003D01*
X010128Y007238D01*
X010110Y007228D01*
X010076Y007223D01*
X010042Y007213D01*
X010021Y007215D01*
X009775Y007182D01*
X009772Y007181D01*
X009719Y007175D01*
X009667Y007168D01*
X009664Y007168D01*
X009661Y007168D01*
X009610Y007183D01*
X009560Y007196D01*
X009557Y007198D01*
X009554Y007199D01*
X009513Y007232D01*
X009471Y007264D01*
X009469Y007266D01*
X009467Y007268D01*
X009442Y007314D01*
X009415Y007360D01*
X009415Y007363D01*
X009236Y007685D01*
X009211Y007725D01*
X009210Y007733D01*
X009206Y007741D01*
X009200Y007788D01*
X009059Y008606D01*
X009054Y008617D01*
X009050Y008661D01*
X009042Y008705D01*
X009045Y008716D01*
X009020Y008992D01*
X009012Y009036D01*
X009015Y009047D01*
X009014Y009058D01*
X009027Y009101D01*
X009179Y009763D01*
X009190Y009814D01*
X009191Y009816D01*
X009192Y009819D01*
X009223Y009863D01*
X009252Y009906D01*
X009255Y009908D01*
X009257Y009910D01*
X009301Y009938D01*
X009658Y010172D01*
X009675Y010190D01*
X009704Y010202D01*
X009731Y010220D01*
X009755Y010224D01*
X009777Y010234D01*
X009809Y010235D01*
X009840Y010240D01*
X009864Y010235D01*
X009888Y010236D01*
X009918Y010224D01*
X009949Y010218D01*
X009969Y010204D01*
X010352Y010053D01*
X010366Y010052D01*
X010403Y010033D01*
X010442Y010018D01*
X010452Y010008D01*
X010465Y010001D01*
X010492Y009969D01*
X010522Y009940D01*
X010528Y009927D01*
X011003Y009368D01*
X011035Y009337D01*
X011039Y009326D01*
X011047Y009316D01*
X011060Y009275D01*
X011186Y008973D01*
X011189Y008970D01*
X011207Y008922D01*
X011227Y008874D01*
X011227Y008870D01*
X011349Y008554D01*
X011364Y008530D01*
X011369Y008502D01*
X011379Y008476D01*
X011378Y008448D01*
X011548Y007456D01*
X011558Y007433D01*
X011558Y007401D01*
X011563Y007370D01*
X011558Y007346D01*
X011558Y006219D01*
X011562Y006205D01*
X011558Y006164D01*
X011558Y006122D01*
X011552Y006109D01*
X011538Y005967D01*
X011739Y006168D01*
X012136Y006168D01*
X012418Y005886D01*
X012418Y005489D01*
X012136Y005208D01*
X011739Y005208D01*
X011478Y005468D01*
X011129Y004149D01*
X011127Y004118D01*
X011115Y004096D01*
X011109Y004072D01*
X011090Y004047D01*
X011076Y004019D01*
X011057Y004003D01*
X011041Y003984D01*
X011014Y003968D01*
X010991Y003948D01*
X010967Y003940D01*
X010945Y003928D01*
X010914Y003923D01*
X009717Y003542D01*
X008052Y002948D01*
X006042Y002045D01*
X006042Y002044D01*
X005989Y002021D01*
X005941Y001999D01*
X005941Y001999D01*
X004737Y001467D01*
X004458Y001235D01*
X004426Y001159D01*
X004438Y001188D02*
X004684Y001188D01*
X004688Y001189D02*
X004688Y001426D01*
X005188Y001436D02*
X005188Y001667D01*
X005235Y001688D02*
X005692Y001688D01*
X005688Y001686D02*
X005688Y001887D01*
X006188Y001936D02*
X006188Y002110D01*
X006360Y002188D02*
X006780Y002188D01*
X006688Y002155D02*
X006688Y002335D01*
X007188Y002329D02*
X007188Y002559D01*
X007473Y002688D02*
X008218Y002688D01*
X008188Y002677D02*
X008188Y002996D01*
X008688Y002841D02*
X008688Y003175D01*
X008724Y003188D02*
X010098Y003188D01*
X010188Y003210D02*
X010188Y003692D01*
X010174Y003688D02*
X012072Y003688D01*
X012188Y004019D02*
X012188Y005259D01*
X012443Y005188D02*
X011404Y005188D01*
X011688Y005259D02*
X011688Y003550D01*
X011188Y003439D02*
X011188Y004369D01*
X011139Y004188D02*
X012246Y004188D01*
X012357Y004688D02*
X011272Y004688D01*
X012418Y005688D02*
X012551Y005688D01*
X012672Y006188D02*
X011560Y006188D01*
X011688Y006116D02*
X011688Y009259D01*
X011739Y009208D02*
X012136Y009208D01*
X012418Y009489D01*
X012418Y009886D01*
X012136Y010168D01*
X011739Y010168D01*
X011458Y009886D01*
X011458Y009489D01*
X011739Y009208D01*
X012188Y009259D02*
X012188Y006116D01*
X012688Y006252D02*
X012688Y011288D01*
X013188Y011288D02*
X013188Y007871D01*
X013116Y007688D02*
X011509Y007688D01*
X011558Y007188D02*
X012922Y007188D01*
X012793Y006688D02*
X011558Y006688D01*
X010128Y007188D02*
X009814Y007188D01*
X009688Y007170D02*
X009688Y006391D01*
X009413Y006688D02*
X010013Y006688D01*
X009592Y007188D02*
X009017Y007188D01*
X009188Y006951D02*
X009188Y007862D01*
X009235Y007688D02*
X008706Y007688D01*
X008688Y007724D02*
X008688Y010536D01*
X008615Y010463D02*
X008391Y010370D01*
X008148Y010370D01*
X007924Y010463D01*
X007753Y010635D01*
X007660Y010859D01*
X007660Y011078D01*
X007441Y011078D01*
X007217Y011170D01*
X007045Y011342D01*
X006953Y011566D01*
X006953Y011785D01*
X006734Y011785D01*
X006510Y011878D01*
X006338Y012049D01*
X006245Y012273D01*
X006245Y012516D01*
X006338Y012740D01*
X006510Y012912D01*
X006734Y013005D01*
X006977Y013005D01*
X007201Y012912D01*
X007373Y012740D01*
X007465Y012516D01*
X007465Y012298D01*
X007684Y012298D01*
X007908Y012205D01*
X008025Y012088D01*
X014022Y012088D01*
X016275Y014341D01*
X016275Y015267D01*
X016395Y015556D01*
X016616Y015778D01*
X016906Y015898D01*
X017219Y015898D01*
X017509Y015778D01*
X017730Y015556D01*
X017850Y015267D01*
X017850Y013858D01*
X017730Y013569D01*
X017509Y013347D01*
X017219Y013228D01*
X016906Y013228D01*
X016616Y013347D01*
X016515Y013449D01*
X014414Y011348D01*
X014267Y011288D01*
X014108Y011288D01*
X008803Y011288D01*
X008880Y011102D01*
X008880Y010859D01*
X008787Y010635D01*
X008615Y010463D01*
X008809Y010688D02*
X015711Y010688D01*
X015688Y010659D02*
X015688Y012622D01*
X015753Y012688D02*
X017217Y012688D01*
X017188Y012659D02*
X017188Y013228D01*
X016688Y013318D02*
X016688Y011945D01*
X016835Y012188D02*
X015253Y012188D01*
X015188Y012122D02*
X015188Y010386D01*
X014825Y010188D02*
X010011Y010188D01*
X010188Y010118D02*
X010188Y011288D01*
X010688Y011288D02*
X010688Y009739D01*
X010731Y009688D02*
X011458Y009688D01*
X011688Y010116D02*
X011688Y011288D01*
X012188Y011288D02*
X012188Y010116D01*
X012418Y009688D02*
X014008Y009688D01*
X014188Y009913D02*
X014188Y011288D01*
X013688Y011288D02*
X013688Y009065D01*
X013751Y009188D02*
X011097Y009188D01*
X011188Y008971D02*
X011188Y011288D01*
X011188Y012088D02*
X011188Y018794D01*
X010938Y018688D02*
X014631Y018688D01*
X014688Y018662D02*
X014688Y012753D01*
X014622Y012688D02*
X007394Y012688D01*
X007188Y012917D02*
X007188Y014343D01*
X007038Y014188D02*
X008007Y014188D01*
X008007Y013858D02*
X008127Y013569D01*
X008349Y013347D01*
X008638Y013228D01*
X008951Y013228D01*
X009241Y013347D01*
X009462Y013569D01*
X009582Y013858D01*
X009582Y015267D01*
X009462Y015556D01*
X009241Y015778D01*
X008951Y015898D01*
X008638Y015898D01*
X008349Y015778D01*
X008127Y015556D01*
X008007Y015267D01*
X008007Y013858D01*
X008078Y013688D02*
X006429Y013688D01*
X006188Y013593D02*
X006188Y010283D01*
X006283Y010188D02*
X009673Y010188D01*
X009688Y010195D02*
X009688Y011288D01*
X009188Y011288D02*
X009188Y009803D01*
X009162Y009688D02*
X006858Y009688D01*
X006688Y009783D02*
X006688Y011804D01*
X006953Y011688D02*
X004204Y011688D01*
X004188Y011708D02*
X004188Y014024D01*
X004134Y014188D02*
X003522Y014188D01*
X003688Y014022D02*
X003688Y014907D01*
X003465Y014688D02*
X004037Y014688D01*
X004188Y014971D02*
X004188Y015652D01*
X004221Y015688D02*
X004683Y015688D01*
X004688Y015697D02*
X004688Y016130D01*
X004759Y016188D02*
X004840Y016188D01*
X004381Y015188D02*
X003888Y015188D01*
X003188Y014609D02*
X003188Y014278D01*
X002853Y014188D02*
X002587Y014188D01*
X002688Y014298D02*
X002688Y014022D01*
X002598Y013688D02*
X002228Y013688D01*
X002188Y013617D02*
X002188Y012339D01*
X002688Y012360D02*
X002688Y012584D01*
X002688Y012687D02*
X002688Y012688D01*
X002688Y012791D02*
X002688Y013353D01*
X002853Y013188D02*
X001943Y013188D01*
X001688Y012830D02*
X001688Y012221D01*
X001564Y012188D02*
X001183Y012188D01*
X001188Y012182D02*
X001188Y012222D01*
X001582Y012688D02*
X003187Y012688D01*
X003188Y012688D02*
X006317Y012688D01*
X006688Y012985D02*
X006688Y013821D01*
X005688Y013397D02*
X005688Y010641D01*
X005565Y010688D02*
X007731Y010688D01*
X007688Y010792D02*
X007688Y009330D01*
X007878Y009188D02*
X009047Y009188D01*
X009045Y008688D02*
X008233Y008688D01*
X008188Y008786D02*
X008188Y010370D01*
X008844Y011188D02*
X016125Y011188D01*
X016188Y011263D02*
X016188Y013122D01*
X016253Y013188D02*
X021442Y013188D01*
X021688Y013031D02*
X021688Y011417D01*
X022188Y011287D02*
X022188Y012712D01*
X022226Y012688D02*
X019037Y012688D01*
X019188Y012609D02*
X019188Y013735D01*
X019140Y013688D02*
X020720Y013688D01*
X020688Y013714D02*
X020688Y011864D01*
X021083Y011688D02*
X024767Y011688D01*
X024825Y011688D02*
X026975Y011688D01*
X027188Y011901D02*
X027188Y012470D01*
X027416Y012688D02*
X027922Y012688D01*
X027688Y012947D02*
X027688Y012417D01*
X027465Y012188D02*
X026892Y012188D01*
X026688Y012108D02*
X026688Y011562D01*
X026188Y011343D02*
X026188Y011936D01*
X025688Y011776D02*
X025688Y011124D01*
X025832Y011188D02*
X022669Y011188D01*
X022688Y011184D02*
X022688Y012393D01*
X023171Y012188D02*
X019992Y012188D01*
X020188Y012087D02*
X020188Y014107D01*
X020086Y014188D02*
X019361Y014188D01*
X019361Y014054D02*
X019361Y014322D01*
X019259Y014569D01*
X019069Y014759D01*
X018822Y014861D01*
X018554Y014861D01*
X018306Y014759D01*
X018116Y014569D01*
X018014Y014322D01*
X018014Y014054D01*
X018116Y013806D01*
X018306Y013616D01*
X018554Y013514D01*
X018822Y013514D01*
X019069Y013616D01*
X019259Y013806D01*
X019361Y014054D01*
X019188Y014640D02*
X019188Y015126D01*
X019130Y015188D02*
X017850Y015188D01*
X017688Y015599D02*
X017688Y016608D01*
X017601Y016688D02*
X008673Y016688D01*
X008688Y016713D02*
X008688Y015898D01*
X008377Y016188D02*
X018149Y016188D01*
X018188Y016152D02*
X018188Y014640D01*
X018235Y014688D02*
X017850Y014688D01*
X017850Y014188D02*
X018014Y014188D01*
X018188Y013735D02*
X018188Y013116D01*
X017688Y013047D02*
X017688Y013526D01*
X017779Y013688D02*
X018235Y013688D01*
X018688Y013514D02*
X018688Y012871D01*
X019688Y012347D02*
X019688Y014584D01*
X019592Y014688D02*
X019140Y014688D01*
X018688Y014861D02*
X018688Y015667D01*
X018669Y015688D02*
X017599Y015688D01*
X017188Y015898D02*
X017188Y017064D01*
X017052Y017188D02*
X009041Y017188D01*
X009188Y017348D02*
X009188Y015800D01*
X009331Y015688D02*
X016526Y015688D01*
X016688Y015807D02*
X016688Y017486D01*
X016388Y017688D02*
X009497Y017688D01*
X009688Y017896D02*
X009688Y012088D01*
X010188Y012088D02*
X010188Y018261D01*
X010083Y018188D02*
X015646Y018188D01*
X015688Y018160D02*
X015688Y013753D01*
X015622Y013688D02*
X013870Y013688D01*
X013878Y013701D02*
X013889Y013741D01*
X013889Y014483D01*
X013009Y014483D01*
X013009Y014642D01*
X013889Y014642D01*
X013889Y015384D01*
X013878Y015424D01*
X013857Y015461D01*
X013827Y015491D01*
X013790Y015512D01*
X013750Y015523D01*
X013009Y015523D01*
X013009Y014643D01*
X012849Y014643D01*
X012849Y015523D01*
X012108Y015523D01*
X012067Y015512D01*
X012030Y015491D01*
X012001Y015461D01*
X011980Y015424D01*
X011969Y015384D01*
X011969Y014642D01*
X012849Y014642D01*
X012849Y014483D01*
X011969Y014483D01*
X011969Y013741D01*
X011980Y013701D01*
X012001Y013664D01*
X012030Y013635D01*
X012067Y013613D01*
X012108Y013603D01*
X012849Y013603D01*
X012849Y014482D01*
X013009Y014482D01*
X013009Y013603D01*
X013750Y013603D01*
X013790Y013613D01*
X013827Y013635D01*
X013857Y013664D01*
X013878Y013701D01*
X013688Y013603D02*
X013688Y012088D01*
X013188Y012088D02*
X013188Y013603D01*
X013009Y013688D02*
X012849Y013688D01*
X012688Y013603D02*
X012688Y012088D01*
X012188Y012088D02*
X012188Y013603D01*
X011987Y013688D02*
X009512Y013688D01*
X009188Y013325D02*
X009188Y012088D01*
X008688Y012088D02*
X008688Y013228D01*
X008188Y013509D02*
X008188Y012088D01*
X007925Y012188D02*
X014122Y012188D01*
X014188Y012253D02*
X014188Y018892D01*
X013688Y019052D02*
X013688Y015523D01*
X013188Y015523D02*
X013188Y019158D01*
X012688Y019158D02*
X012688Y015523D01*
X012849Y015188D02*
X013009Y015188D01*
X013009Y014688D02*
X012849Y014688D01*
X012688Y014642D02*
X012688Y014483D01*
X012849Y014188D02*
X013009Y014188D01*
X013188Y014483D02*
X013188Y014642D01*
X013688Y014642D02*
X013688Y014483D01*
X013889Y014688D02*
X016275Y014688D01*
X016275Y015188D02*
X013889Y015188D01*
X013889Y014188D02*
X016122Y014188D01*
X016188Y014253D02*
X016188Y017823D01*
X015188Y018432D02*
X015188Y013253D01*
X015122Y013188D02*
X003522Y013188D01*
X003688Y013353D02*
X003688Y012791D01*
X003688Y012688D02*
X003688Y012687D01*
X003688Y012584D02*
X003688Y012268D01*
X003804Y012188D02*
X006281Y012188D01*
X007688Y012296D02*
X007688Y015020D01*
X007791Y015188D02*
X008007Y015188D01*
X008188Y015616D02*
X008188Y015866D01*
X008259Y015688D02*
X008082Y015688D01*
X008007Y014688D02*
X007483Y014688D01*
X009582Y014688D02*
X011969Y014688D01*
X012188Y014642D02*
X012188Y014483D01*
X011969Y014188D02*
X009582Y014188D01*
X009582Y015188D02*
X011969Y015188D01*
X012188Y015523D02*
X012188Y019103D01*
X011688Y018987D02*
X011688Y012088D01*
X010688Y012088D02*
X010688Y018580D01*
X004575Y013688D02*
X003778Y013688D01*
X004688Y013625D02*
X004688Y011123D01*
X004623Y011188D02*
X007200Y011188D01*
X007188Y011200D02*
X007188Y009565D01*
X008462Y008188D02*
X009131Y008188D01*
X011298Y008688D02*
X013505Y008688D01*
X013311Y008188D02*
X011423Y008188D01*
X014688Y010121D02*
X014688Y011622D01*
X014753Y011688D02*
X016531Y011688D01*
X021188Y011641D02*
X021188Y013350D01*
X023188Y012181D02*
X023188Y011081D01*
X023688Y010978D02*
X023688Y011984D01*
X024188Y011846D02*
X024188Y010934D01*
X024688Y010980D02*
X024688Y011710D01*
X025188Y011725D02*
X025188Y011043D01*
X027940Y013188D02*
X028205Y013188D01*
X028188Y013157D02*
X028188Y013424D01*
X028385Y013688D02*
X028459Y013688D01*
X010688Y003851D02*
X010688Y003327D01*
X009688Y003532D02*
X009688Y003087D01*
X009188Y002964D02*
X009188Y003353D01*
X007688Y002784D02*
X007688Y002503D01*
X005188Y010851D02*
X005188Y013459D01*
M02*
