G75*
G70*
%OFA0B0*%
%FSLAX24Y24*%
%IPPOS*%
%LPD*%
%AMOC8*
5,1,8,0,0,1.08239X$1,22.5*
%
%ADD10C,0.0040*%
%ADD11C,0.0060*%
%ADD12C,0.0080*%
D10*
X006866Y010208D02*
X006933Y010208D01*
X006966Y010241D01*
X006966Y010374D01*
X006933Y010408D01*
X006866Y010408D01*
X006833Y010374D01*
X006833Y010241D01*
X006866Y010208D01*
X007054Y010208D02*
X007054Y010408D01*
X007187Y010408D01*
X007275Y010408D02*
X007408Y010408D01*
X007341Y010308D02*
X007275Y010308D01*
X007275Y010208D02*
X007275Y010408D01*
X007120Y010308D02*
X007054Y010308D01*
X005812Y011708D02*
X005812Y011908D01*
X005679Y011908D02*
X005812Y011708D01*
X005679Y011708D02*
X005679Y011908D01*
X005591Y011874D02*
X005591Y011741D01*
X005558Y011708D01*
X005491Y011708D01*
X005458Y011741D01*
X005458Y011874D01*
X005491Y011908D01*
X005558Y011908D01*
X005591Y011874D01*
X005033Y012241D02*
X005033Y012374D01*
X005000Y012408D01*
X004900Y012408D01*
X004900Y012208D01*
X005000Y012208D01*
X005033Y012241D01*
X004812Y012208D02*
X004679Y012208D01*
X004679Y012408D01*
X004812Y012408D01*
X004745Y012308D02*
X004679Y012308D01*
X004591Y012208D02*
X004458Y012208D01*
X004458Y012408D01*
X003774Y013616D02*
X003774Y013749D01*
X003708Y013683D02*
X003841Y013683D01*
X011333Y013033D02*
X011433Y013033D01*
X011466Y012999D01*
X011466Y012966D01*
X011433Y012933D01*
X011333Y012933D01*
X011433Y012933D02*
X011466Y012899D01*
X011466Y012866D01*
X011433Y012833D01*
X011333Y012833D01*
X011333Y013033D01*
X011554Y013033D02*
X011554Y012999D01*
X011620Y012933D01*
X011620Y012833D01*
X011620Y012933D02*
X011687Y012999D01*
X011687Y013033D01*
X011775Y013033D02*
X011875Y013033D01*
X011908Y012999D01*
X011908Y012933D01*
X011875Y012899D01*
X011775Y012899D01*
X011775Y012833D02*
X011775Y013033D01*
X011996Y012966D02*
X012062Y013033D01*
X012129Y012966D01*
X012129Y012833D01*
X012217Y012866D02*
X012250Y012833D01*
X012317Y012833D01*
X012350Y012866D01*
X012350Y012899D01*
X012317Y012933D01*
X012250Y012933D01*
X012217Y012966D01*
X012217Y012999D01*
X012250Y013033D01*
X012317Y013033D01*
X012350Y012999D01*
X012438Y012999D02*
X012438Y012966D01*
X012471Y012933D01*
X012538Y012933D01*
X012571Y012899D01*
X012571Y012866D01*
X012538Y012833D01*
X012471Y012833D01*
X012438Y012866D01*
X012438Y012999D02*
X012471Y013033D01*
X012538Y013033D01*
X012571Y012999D01*
X012497Y012720D02*
X012497Y012520D01*
X012497Y012620D02*
X012364Y012620D01*
X012364Y012520D02*
X012364Y012720D01*
X012276Y012687D02*
X012243Y012720D01*
X012176Y012720D01*
X012143Y012687D01*
X012143Y012553D01*
X012176Y012520D01*
X012243Y012520D01*
X012276Y012553D01*
X012055Y012720D02*
X011922Y012720D01*
X011989Y012720D02*
X011989Y012520D01*
X011841Y012520D02*
X011775Y012520D01*
X011808Y012520D02*
X011808Y012720D01*
X011775Y012720D02*
X011841Y012720D01*
X011687Y012720D02*
X011687Y012520D01*
X011620Y012587D01*
X011554Y012520D01*
X011554Y012720D01*
X011466Y012687D02*
X011433Y012720D01*
X011366Y012720D01*
X011333Y012687D01*
X011333Y012654D01*
X011366Y012620D01*
X011433Y012620D01*
X011466Y012587D01*
X011466Y012553D01*
X011433Y012520D01*
X011366Y012520D01*
X011333Y012553D01*
X011996Y012833D02*
X011996Y012966D01*
X011996Y012933D02*
X012129Y012933D01*
X012833Y012720D02*
X012833Y012520D01*
X012833Y012587D02*
X012933Y012587D01*
X012966Y012620D01*
X012966Y012687D01*
X012933Y012720D01*
X012833Y012720D01*
X012899Y012587D02*
X012966Y012520D01*
X013054Y012520D02*
X013187Y012520D01*
X013275Y012553D02*
X013308Y012520D01*
X013375Y012520D01*
X013408Y012553D01*
X013408Y012587D01*
X013375Y012620D01*
X013308Y012620D01*
X013275Y012654D01*
X013275Y012687D01*
X013308Y012720D01*
X013375Y012720D01*
X013408Y012687D01*
X013496Y012720D02*
X013562Y012720D01*
X013529Y012720D02*
X013529Y012520D01*
X013496Y012520D02*
X013562Y012520D01*
X013643Y012553D02*
X013676Y012520D01*
X013743Y012520D01*
X013776Y012553D01*
X013776Y012587D01*
X013743Y012620D01*
X013676Y012620D01*
X013643Y012654D01*
X013643Y012687D01*
X013676Y012720D01*
X013743Y012720D01*
X013776Y012687D01*
X013864Y012720D02*
X013997Y012720D01*
X013931Y012720D02*
X013931Y012520D01*
X014085Y012553D02*
X014085Y012687D01*
X014118Y012720D01*
X014185Y012720D01*
X014218Y012687D01*
X014218Y012553D01*
X014185Y012520D01*
X014118Y012520D01*
X014085Y012553D01*
X014306Y012520D02*
X014306Y012720D01*
X014406Y012720D01*
X014439Y012687D01*
X014439Y012620D01*
X014406Y012587D01*
X014306Y012587D01*
X014372Y012587D02*
X014439Y012520D01*
X014225Y012833D02*
X014158Y012833D01*
X014125Y012866D01*
X014158Y012933D02*
X014225Y012933D01*
X014258Y012899D01*
X014258Y012866D01*
X014225Y012833D01*
X014158Y012933D02*
X014125Y012966D01*
X014125Y012999D01*
X014158Y013033D01*
X014225Y013033D01*
X014258Y012999D01*
X014037Y012999D02*
X014004Y013033D01*
X013937Y013033D01*
X013904Y012999D01*
X013904Y012966D01*
X013937Y012933D01*
X014004Y012933D01*
X014037Y012899D01*
X014037Y012866D01*
X014004Y012833D01*
X013937Y012833D01*
X013904Y012866D01*
X013816Y012833D02*
X013816Y012966D01*
X013750Y013033D01*
X013683Y012966D01*
X013683Y012833D01*
X013683Y012933D02*
X013816Y012933D01*
X013595Y012933D02*
X013562Y012899D01*
X013462Y012899D01*
X013462Y012833D02*
X013462Y013033D01*
X013562Y013033D01*
X013595Y012999D01*
X013595Y012933D01*
X013374Y012999D02*
X013374Y013033D01*
X013374Y012999D02*
X013308Y012933D01*
X013308Y012833D01*
X013308Y012933D02*
X013241Y012999D01*
X013241Y013033D01*
X013154Y012999D02*
X013154Y012966D01*
X013120Y012933D01*
X013020Y012933D01*
X013020Y013033D02*
X013120Y013033D01*
X013154Y012999D01*
X013120Y012933D02*
X013154Y012899D01*
X013154Y012866D01*
X013120Y012833D01*
X013020Y012833D01*
X013020Y013033D01*
X013054Y012720D02*
X013054Y012520D01*
X013054Y012620D02*
X013120Y012620D01*
X013054Y012720D02*
X013187Y012720D01*
D11*
X013138Y012338D02*
X013738Y012338D01*
X013755Y012336D01*
X013772Y012332D01*
X013788Y012325D01*
X013802Y012315D01*
X013815Y012302D01*
X013825Y012288D01*
X013832Y012272D01*
X013836Y012255D01*
X013838Y012238D01*
X013838Y011138D01*
X013836Y011121D01*
X013832Y011104D01*
X013825Y011088D01*
X013815Y011074D01*
X013802Y011061D01*
X013788Y011051D01*
X013772Y011044D01*
X013755Y011040D01*
X013738Y011038D01*
X013138Y011038D01*
X013121Y011040D01*
X013104Y011044D01*
X013088Y011051D01*
X013074Y011061D01*
X013061Y011074D01*
X013051Y011088D01*
X013044Y011104D01*
X013040Y011121D01*
X013038Y011138D01*
X013038Y012238D01*
X013040Y012255D01*
X013044Y012272D01*
X013051Y012288D01*
X013061Y012302D01*
X013074Y012315D01*
X013088Y012325D01*
X013104Y012332D01*
X013121Y012336D01*
X013138Y012338D01*
X012588Y012238D02*
X012588Y011138D01*
X012586Y011121D01*
X012582Y011104D01*
X012575Y011088D01*
X012565Y011074D01*
X012552Y011061D01*
X012538Y011051D01*
X012522Y011044D01*
X012505Y011040D01*
X012488Y011038D01*
X011888Y011038D01*
X011871Y011040D01*
X011854Y011044D01*
X011838Y011051D01*
X011824Y011061D01*
X011811Y011074D01*
X011801Y011088D01*
X011794Y011104D01*
X011790Y011121D01*
X011788Y011138D01*
X011788Y012238D01*
X011790Y012255D01*
X011794Y012272D01*
X011801Y012288D01*
X011811Y012302D01*
X011824Y012315D01*
X011838Y012325D01*
X011854Y012332D01*
X011871Y012336D01*
X011888Y012338D01*
X012488Y012338D01*
X012505Y012336D01*
X012522Y012332D01*
X012538Y012325D01*
X012552Y012315D01*
X012565Y012302D01*
X012575Y012288D01*
X012582Y012272D01*
X012586Y012255D01*
X012588Y012238D01*
X012830Y016218D02*
X012830Y016558D01*
X012944Y016444D01*
X013057Y016558D01*
X013057Y016218D01*
X013199Y016274D02*
X013199Y016388D01*
X013255Y016444D01*
X013369Y016444D01*
X013425Y016388D01*
X013425Y016331D01*
X013199Y016331D01*
X013199Y016274D02*
X013255Y016218D01*
X013369Y016218D01*
X013567Y016218D02*
X013680Y016218D01*
X013624Y016218D02*
X013624Y016558D01*
X013567Y016558D01*
X013812Y016558D02*
X013812Y016218D01*
X013982Y016218D01*
X014039Y016274D01*
X014039Y016388D01*
X013982Y016444D01*
X013812Y016444D01*
X014181Y016388D02*
X014181Y016274D01*
X014237Y016218D01*
X014351Y016218D01*
X014408Y016274D01*
X014408Y016388D01*
X014351Y016444D01*
X014237Y016444D01*
X014181Y016388D01*
X014549Y016444D02*
X014549Y016274D01*
X014606Y016218D01*
X014776Y016218D01*
X014776Y016444D01*
X014917Y016444D02*
X014917Y016218D01*
X014917Y016331D02*
X015031Y016444D01*
X015087Y016444D01*
X015224Y016444D02*
X015394Y016444D01*
X015451Y016388D01*
X015451Y016218D01*
X015592Y016274D02*
X015592Y016388D01*
X015649Y016444D01*
X015763Y016444D01*
X015819Y016388D01*
X015819Y016331D01*
X015592Y016331D01*
X015592Y016274D02*
X015649Y016218D01*
X015763Y016218D01*
X015224Y016218D02*
X015224Y016444D01*
X016329Y016501D02*
X016386Y016558D01*
X016499Y016558D01*
X016556Y016501D01*
X016556Y016444D01*
X016329Y016218D01*
X016556Y016218D01*
X016697Y016274D02*
X016924Y016501D01*
X016924Y016274D01*
X016868Y016218D01*
X016754Y016218D01*
X016697Y016274D01*
X016697Y016501D01*
X016754Y016558D01*
X016868Y016558D01*
X016924Y016501D01*
X017066Y016444D02*
X017179Y016558D01*
X017179Y016218D01*
X017066Y016218D02*
X017293Y016218D01*
X017434Y016218D02*
X017661Y016444D01*
X017661Y016501D01*
X017604Y016558D01*
X017491Y016558D01*
X017434Y016501D01*
X017434Y016218D02*
X017661Y016218D01*
X012320Y016331D02*
X012094Y016331D01*
X012094Y016274D02*
X012094Y016388D01*
X012150Y016444D01*
X012264Y016444D01*
X012320Y016388D01*
X012320Y016331D01*
X012264Y016218D02*
X012150Y016218D01*
X012094Y016274D01*
X011957Y016444D02*
X011900Y016444D01*
X011787Y016331D01*
X011787Y016218D02*
X011787Y016444D01*
X011598Y016444D02*
X011598Y016218D01*
X011541Y016218D02*
X011655Y016218D01*
X011598Y016444D02*
X011541Y016444D01*
X011598Y016558D02*
X011598Y016615D01*
X011400Y016388D02*
X011343Y016444D01*
X011230Y016444D01*
X011230Y016331D02*
X011400Y016331D01*
X011400Y016388D02*
X011400Y016218D01*
X011230Y016218D01*
X011173Y016274D01*
X011230Y016331D01*
X011031Y016558D02*
X010805Y016558D01*
X010805Y016218D01*
X010805Y016388D02*
X010918Y016388D01*
X010300Y016444D02*
X010243Y016444D01*
X010129Y016331D01*
X010129Y016218D02*
X010129Y016444D01*
X009988Y016388D02*
X009988Y016331D01*
X009761Y016331D01*
X009761Y016274D02*
X009761Y016388D01*
X009818Y016444D01*
X009931Y016444D01*
X009988Y016388D01*
X009931Y016218D02*
X009818Y016218D01*
X009761Y016274D01*
X009624Y016218D02*
X009454Y016331D01*
X009624Y016444D01*
X009454Y016558D02*
X009454Y016218D01*
X009313Y016218D02*
X009143Y016218D01*
X009086Y016274D01*
X009143Y016331D01*
X009313Y016331D01*
X009313Y016388D02*
X009313Y016218D01*
X009313Y016388D02*
X009256Y016444D01*
X009143Y016444D01*
X008944Y016558D02*
X008944Y016218D01*
X008718Y016218D02*
X008718Y016558D01*
X008831Y016444D01*
X008944Y016558D01*
D12*
X005338Y012701D02*
X008576Y009463D01*
X009787Y010674D01*
X006549Y013912D01*
X005338Y012701D01*
X003938Y012188D02*
X002438Y012188D01*
X002384Y012231D01*
X002332Y012277D01*
X002283Y012326D01*
X002236Y012378D01*
X002193Y012432D01*
X002152Y012488D01*
X002115Y012547D01*
X002081Y012607D01*
X002051Y012670D01*
X002024Y012733D01*
X002000Y012799D01*
X001980Y012865D01*
X001964Y012933D01*
X001952Y013001D01*
X001944Y013070D01*
X001939Y013139D01*
X001938Y013209D01*
X001941Y013278D01*
X001948Y013347D01*
X001959Y013415D01*
X001973Y013483D01*
X001992Y013550D01*
X002014Y013616D01*
X002039Y013681D01*
X002068Y013744D01*
X002101Y013805D01*
X002137Y013864D01*
X002176Y013921D01*
X002218Y013977D01*
X002263Y014029D01*
X002311Y014079D01*
X002362Y014126D01*
X002416Y014171D01*
X002471Y014212D01*
X002529Y014250D01*
X002589Y014285D01*
X002651Y014317D01*
X002714Y014345D01*
X002779Y014369D01*
X002845Y014390D01*
X002913Y014407D01*
X002981Y014421D01*
X003050Y014430D01*
X003119Y014436D01*
X003188Y014438D01*
X003257Y014436D01*
X003326Y014430D01*
X003395Y014421D01*
X003463Y014407D01*
X003531Y014390D01*
X003597Y014369D01*
X003662Y014345D01*
X003725Y014317D01*
X003787Y014285D01*
X003847Y014250D01*
X003905Y014212D01*
X003960Y014171D01*
X004014Y014126D01*
X004065Y014079D01*
X004113Y014029D01*
X004158Y013977D01*
X004200Y013921D01*
X004239Y013864D01*
X004275Y013805D01*
X004308Y013744D01*
X004337Y013681D01*
X004362Y013616D01*
X004384Y013550D01*
X004403Y013483D01*
X004417Y013415D01*
X004428Y013347D01*
X004435Y013278D01*
X004438Y013209D01*
X004437Y013139D01*
X004432Y013070D01*
X004424Y013001D01*
X004412Y012933D01*
X004396Y012865D01*
X004376Y012799D01*
X004352Y012733D01*
X004325Y012670D01*
X004295Y012607D01*
X004261Y012547D01*
X004224Y012488D01*
X004183Y012432D01*
X004140Y012378D01*
X004093Y012326D01*
X004044Y012277D01*
X003992Y012231D01*
X003938Y012188D01*
M02*
