G75*
G70*
%OFA0B0*%
%FSLAX24Y24*%
%IPPOS*%
%LPD*%
%AMOC8*
5,1,8,0,0,1.08239X$1,22.5*
%
%ADD10C,0.0040*%
%ADD11C,0.0050*%
%ADD12C,0.0080*%
%ADD13C,0.0060*%
D10*
X007883Y007794D02*
X007741Y007936D01*
X007812Y008006D01*
X007859Y008006D01*
X007883Y007983D01*
X007883Y007936D01*
X007812Y007865D01*
X007883Y007936D02*
X007930Y007936D01*
X007954Y007912D01*
X007954Y007865D01*
X007883Y007794D01*
X008101Y007646D02*
X008101Y007599D01*
X008125Y007576D01*
X008172Y007576D01*
X008219Y007623D01*
X008267Y007623D01*
X008290Y007599D01*
X008290Y007552D01*
X008243Y007505D01*
X008196Y007505D01*
X008101Y007646D02*
X008149Y007694D01*
X008196Y007694D01*
X008234Y007779D02*
X008376Y007638D01*
X008376Y007732D01*
X008470Y007732D01*
X008328Y007873D01*
X008390Y007935D02*
X008437Y007982D01*
X008414Y007959D02*
X008555Y007817D01*
X008532Y007794D02*
X008579Y007841D01*
X008683Y007945D02*
X008542Y008087D01*
X008589Y008134D02*
X008494Y008039D01*
X008674Y008172D02*
X008674Y008219D01*
X008721Y008266D01*
X008769Y008266D01*
X008807Y008352D02*
X008948Y008210D01*
X008863Y008172D02*
X008863Y008125D01*
X008816Y008078D01*
X008769Y008078D01*
X008674Y008172D01*
X008878Y008281D02*
X008972Y008375D01*
X009043Y008305D02*
X008901Y008446D01*
X008735Y008646D02*
X008735Y008693D01*
X008711Y008717D01*
X008664Y008717D01*
X008617Y008670D01*
X008569Y008670D01*
X008546Y008693D01*
X008546Y008740D01*
X008593Y008787D01*
X008640Y008787D01*
X008735Y008646D02*
X008687Y008599D01*
X008640Y008599D01*
X008578Y008537D02*
X008578Y008490D01*
X008531Y008443D01*
X008484Y008443D01*
X008460Y008513D02*
X008508Y008560D01*
X008555Y008560D01*
X008578Y008537D01*
X008460Y008513D02*
X008413Y008513D01*
X008390Y008537D01*
X008390Y008584D01*
X008437Y008631D01*
X008484Y008631D01*
X008351Y008451D02*
X008446Y008357D01*
X008375Y008428D02*
X008281Y008334D01*
X008257Y008357D02*
X008257Y008451D01*
X008351Y008451D01*
X008257Y008357D02*
X008351Y008263D01*
X008219Y008272D02*
X008219Y008224D01*
X008148Y008154D01*
X008195Y008107D02*
X008054Y008248D01*
X008124Y008319D01*
X008172Y008319D01*
X008219Y008272D01*
X008015Y008163D02*
X007992Y008186D01*
X008015Y008163D02*
X008015Y008068D01*
X008086Y007997D01*
X008015Y008068D02*
X007921Y008068D01*
X007897Y008092D01*
X012687Y007639D02*
X012829Y007781D01*
X012899Y007710D01*
X012899Y007663D01*
X012852Y007616D01*
X012805Y007615D01*
X012734Y007686D01*
X012781Y007639D02*
X012781Y007545D01*
X012843Y007483D02*
X012938Y007388D01*
X013023Y007350D02*
X013023Y007303D01*
X013070Y007256D01*
X013117Y007256D01*
X013141Y007279D01*
X013141Y007327D01*
X013094Y007374D01*
X013094Y007421D01*
X013117Y007444D01*
X013165Y007445D01*
X013212Y007397D01*
X013212Y007350D01*
X013297Y007312D02*
X013344Y007265D01*
X013321Y007288D02*
X013179Y007147D01*
X013156Y007170D02*
X013203Y007123D01*
X013283Y007090D02*
X013283Y007043D01*
X013331Y006995D01*
X013378Y006995D01*
X013401Y007019D01*
X013401Y007066D01*
X013354Y007113D01*
X013354Y007160D01*
X013378Y007184D01*
X013425Y007184D01*
X013472Y007137D01*
X013472Y007090D01*
X013558Y007051D02*
X013652Y006957D01*
X013605Y007004D02*
X013463Y006863D01*
X013596Y006777D02*
X013596Y006730D01*
X013643Y006683D01*
X013690Y006683D01*
X013784Y006777D01*
X013785Y006824D01*
X013737Y006872D01*
X013690Y006872D01*
X013596Y006777D01*
X013728Y006597D02*
X013870Y006739D01*
X013941Y006668D01*
X013941Y006621D01*
X013894Y006574D01*
X013846Y006574D01*
X013776Y006644D01*
X013823Y006597D02*
X013823Y006503D01*
X013828Y006977D02*
X013781Y007024D01*
X013781Y007071D01*
X013852Y007095D02*
X013899Y007047D01*
X013899Y007000D01*
X013875Y006977D01*
X013828Y006977D01*
X013852Y007095D02*
X013852Y007142D01*
X013875Y007165D01*
X013922Y007165D01*
X013970Y007118D01*
X013970Y007071D01*
X013813Y007227D02*
X013813Y007274D01*
X013766Y007322D01*
X013719Y007322D01*
X013695Y007298D01*
X013695Y007251D01*
X013743Y007204D01*
X013743Y007156D01*
X013719Y007133D01*
X013672Y007133D01*
X013625Y007180D01*
X013625Y007227D01*
X013539Y007266D02*
X013634Y007360D01*
X013634Y007454D01*
X013539Y007454D01*
X013445Y007360D01*
X013516Y007431D02*
X013610Y007336D01*
X013454Y007493D02*
X013407Y007493D01*
X013336Y007563D01*
X013289Y007516D02*
X013430Y007658D01*
X013501Y007587D01*
X013501Y007540D01*
X013454Y007493D01*
X013345Y007696D02*
X013368Y007720D01*
X013345Y007696D02*
X013250Y007696D01*
X013180Y007625D01*
X013250Y007696D02*
X013250Y007790D01*
X013274Y007814D01*
X013189Y007852D02*
X013165Y007829D01*
X013118Y007829D01*
X013047Y007899D01*
X012976Y007829D02*
X013047Y007758D01*
X013094Y007758D01*
X013118Y007781D01*
X013118Y007829D01*
X013189Y007852D02*
X013189Y007899D01*
X013118Y007970D01*
X012976Y007829D01*
X012985Y007624D02*
X012843Y007483D01*
X012914Y007554D02*
X012961Y007506D01*
X013079Y007530D02*
X012985Y007624D01*
X013450Y001841D02*
X013450Y001641D01*
X013584Y001641D01*
X013671Y001641D02*
X013805Y001641D01*
X013892Y001641D02*
X013992Y001641D01*
X014026Y001674D01*
X014026Y001808D01*
X013992Y001841D01*
X013892Y001841D01*
X013892Y001641D01*
X013738Y001741D02*
X013671Y001741D01*
X013671Y001841D02*
X013671Y001641D01*
X013671Y001841D02*
X013805Y001841D01*
D11*
X016100Y002781D02*
X016280Y002781D01*
X016190Y002871D02*
X016190Y002691D01*
X011625Y007611D02*
X011625Y007881D01*
X011445Y007881D02*
X011445Y007611D01*
X011330Y007656D02*
X011330Y007836D01*
X011285Y007881D01*
X011195Y007881D01*
X011150Y007836D01*
X011150Y007656D01*
X011195Y007611D01*
X011285Y007611D01*
X011330Y007656D01*
X011445Y007881D02*
X011625Y007611D01*
X008555Y004706D02*
X008375Y004706D01*
X008375Y004436D01*
X008375Y004571D02*
X008465Y004571D01*
X008260Y004706D02*
X008080Y004706D01*
X008080Y004436D01*
X007965Y004481D02*
X007965Y004661D01*
X007920Y004706D01*
X007830Y004706D01*
X007785Y004661D01*
X007785Y004481D01*
X007830Y004436D01*
X007920Y004436D01*
X007965Y004481D01*
X008080Y004571D02*
X008170Y004571D01*
D12*
X013695Y003836D02*
X013695Y002336D01*
X013738Y002282D01*
X013784Y002230D01*
X013833Y002181D01*
X013885Y002134D01*
X013939Y002091D01*
X013995Y002050D01*
X014054Y002013D01*
X014114Y001979D01*
X014177Y001949D01*
X014240Y001922D01*
X014306Y001898D01*
X014372Y001878D01*
X014440Y001862D01*
X014508Y001850D01*
X014577Y001842D01*
X014646Y001837D01*
X014716Y001836D01*
X014785Y001839D01*
X014854Y001846D01*
X014922Y001857D01*
X014990Y001871D01*
X015057Y001890D01*
X015123Y001912D01*
X015188Y001937D01*
X015251Y001966D01*
X015312Y001999D01*
X015371Y002035D01*
X015428Y002074D01*
X015484Y002116D01*
X015536Y002161D01*
X015586Y002209D01*
X015633Y002260D01*
X015678Y002314D01*
X015719Y002369D01*
X015757Y002427D01*
X015792Y002487D01*
X015824Y002549D01*
X015852Y002612D01*
X015876Y002677D01*
X015897Y002743D01*
X015914Y002811D01*
X015928Y002879D01*
X015937Y002948D01*
X015943Y003017D01*
X015945Y003086D01*
X015943Y003155D01*
X015937Y003224D01*
X015928Y003293D01*
X015914Y003361D01*
X015897Y003429D01*
X015876Y003495D01*
X015852Y003560D01*
X015824Y003623D01*
X015792Y003685D01*
X015757Y003745D01*
X015719Y003803D01*
X015678Y003858D01*
X015633Y003912D01*
X015586Y003963D01*
X015536Y004011D01*
X015484Y004056D01*
X015428Y004098D01*
X015371Y004137D01*
X015312Y004173D01*
X015251Y004206D01*
X015188Y004235D01*
X015123Y004260D01*
X015057Y004282D01*
X014990Y004301D01*
X014922Y004315D01*
X014854Y004326D01*
X014785Y004333D01*
X014716Y004336D01*
X014646Y004335D01*
X014577Y004330D01*
X014508Y004322D01*
X014440Y004310D01*
X014372Y004294D01*
X014306Y004274D01*
X014240Y004250D01*
X014177Y004223D01*
X014114Y004193D01*
X014054Y004159D01*
X013995Y004122D01*
X013939Y004081D01*
X013885Y004038D01*
X013833Y003991D01*
X013784Y003942D01*
X013738Y003890D01*
X013695Y003836D01*
X006371Y013351D02*
X006258Y013351D01*
X006258Y013464D01*
X006428Y013634D01*
X006371Y013691D02*
X006541Y013521D01*
X006371Y013351D01*
X006176Y013156D02*
X006006Y013326D01*
X005893Y013326D01*
X005780Y013213D01*
X005780Y013100D01*
X005768Y012861D02*
X005824Y012804D01*
X005768Y012748D01*
X005711Y012804D01*
X005768Y012861D01*
X005950Y012930D02*
X005610Y013270D01*
X005348Y013663D02*
X005051Y013961D01*
X005249Y013961D01*
X005249Y014159D01*
X005546Y013862D01*
X005624Y014038D02*
X005624Y014137D01*
X005773Y014286D01*
X005723Y014336D02*
X005872Y014187D01*
X005723Y014038D01*
X005624Y014038D01*
X005525Y014237D02*
X005624Y014336D01*
X005723Y014336D01*
X005900Y014413D02*
X005950Y014661D01*
X006122Y014734D02*
X006122Y014833D01*
X006221Y014932D01*
X006320Y014932D01*
X006370Y014883D01*
X006172Y014685D01*
X006221Y014635D02*
X006122Y014734D01*
X006221Y014635D02*
X006320Y014635D01*
X006419Y014734D01*
X006596Y014911D02*
X006398Y015109D01*
X006497Y015010D02*
X006497Y015208D01*
X006547Y015258D01*
X007044Y015657D02*
X007143Y015756D01*
X006896Y015805D02*
X007193Y015508D01*
X006896Y015805D02*
X007094Y016003D01*
X007370Y016081D02*
X007469Y016180D01*
X007568Y016180D01*
X007717Y016032D01*
X007568Y015883D01*
X007469Y015883D01*
X007469Y015982D01*
X007617Y016131D01*
X007646Y016357D02*
X007695Y016407D01*
X007893Y016208D01*
X007844Y016159D02*
X007943Y016258D01*
X008061Y016376D02*
X007863Y016574D01*
X007962Y016475D02*
X007962Y016673D01*
X008011Y016723D01*
X008184Y016796D02*
X008184Y016895D01*
X008283Y016994D01*
X008382Y016994D01*
X008431Y016944D01*
X008233Y016746D01*
X008283Y016697D02*
X008184Y016796D01*
X008283Y016697D02*
X008382Y016697D01*
X008481Y016796D01*
X008822Y016255D02*
X008992Y016085D01*
X009105Y016085D01*
X009275Y016255D01*
X009049Y016482D01*
X009187Y016620D02*
X009413Y016393D01*
X009300Y016507D02*
X009300Y016733D01*
X009357Y016790D01*
X009491Y016924D02*
X009660Y017094D01*
X009774Y017094D01*
X009944Y016924D01*
X010025Y017118D02*
X009912Y017232D01*
X009912Y017345D01*
X010025Y017458D01*
X010138Y017458D01*
X010195Y017401D01*
X009968Y017175D01*
X010025Y017118D02*
X010138Y017118D01*
X010251Y017232D01*
X010446Y017426D02*
X010390Y017483D01*
X010446Y017540D01*
X010503Y017483D01*
X010446Y017426D01*
X010572Y017665D02*
X010685Y017665D01*
X010798Y017779D01*
X010798Y017892D01*
X010685Y018005D01*
X010572Y018005D01*
X010459Y017892D01*
X010459Y017779D01*
X010572Y017665D01*
X010993Y017973D02*
X010767Y018200D01*
X010880Y018313D02*
X010880Y018086D01*
X010880Y018313D02*
X010936Y018370D01*
X011127Y018447D02*
X011127Y018560D01*
X011297Y018730D01*
X011580Y018447D01*
X011580Y018334D01*
X011523Y018277D01*
X011353Y018334D02*
X011523Y018504D01*
X011661Y018642D02*
X011548Y019208D01*
X011800Y019346D02*
X011800Y019459D01*
X011800Y019346D02*
X012083Y019063D01*
X011856Y019176D02*
X011969Y019289D01*
X012099Y019532D02*
X012212Y019646D01*
X012326Y019646D01*
X012495Y019476D01*
X012326Y019306D01*
X012212Y019306D01*
X012212Y019419D01*
X012382Y019589D01*
X012407Y019840D02*
X012464Y019897D01*
X012690Y019670D01*
X012634Y019614D02*
X012747Y019727D01*
X012877Y019857D02*
X012650Y020083D01*
X012763Y019970D02*
X012763Y020196D01*
X012820Y020253D01*
X013011Y020331D02*
X013011Y020444D01*
X013124Y020557D01*
X013237Y020557D01*
X013294Y020500D01*
X013067Y020274D01*
X013011Y020331D02*
X013124Y020217D01*
X013237Y020217D01*
X013350Y020331D01*
X012727Y021042D02*
X012925Y021240D01*
X012826Y021141D02*
X012528Y021438D01*
X012528Y021240D01*
X012351Y021162D02*
X012550Y020964D01*
X012550Y020865D01*
X012451Y020766D01*
X012351Y020766D01*
X012351Y021162D01*
X012252Y021162D01*
X012153Y021063D01*
X012153Y020964D01*
X012351Y020766D01*
X012274Y020589D02*
X012076Y020391D01*
X012076Y020787D01*
X012026Y020836D01*
X011927Y020836D01*
X011828Y020737D01*
X011828Y020638D01*
X011474Y020086D02*
X011375Y020086D01*
X011276Y019987D01*
X011276Y019888D01*
X011375Y019789D01*
X011474Y019789D01*
X011573Y019888D01*
X011524Y020037D02*
X011325Y019839D01*
X011149Y019761D02*
X011297Y019612D01*
X011149Y019761D02*
X011049Y019761D01*
X010901Y019612D01*
X011099Y019414D01*
X010778Y019489D02*
X010729Y019440D01*
X010729Y019242D01*
X010828Y019143D02*
X010630Y019341D01*
X010502Y019214D02*
X010700Y019015D01*
X010552Y018867D01*
X010453Y018867D01*
X010304Y019015D01*
X010226Y018838D02*
X010127Y018838D01*
X010028Y018739D01*
X010028Y018640D01*
X010127Y018541D01*
X010226Y018541D01*
X010325Y018640D01*
X010325Y018739D01*
X010226Y018838D01*
X009901Y018513D02*
X010000Y018414D01*
X010000Y018315D01*
X009851Y018166D01*
X009554Y018463D01*
X009653Y018364D02*
X009802Y018513D01*
X009901Y018513D01*
X009733Y018048D02*
X009634Y017949D01*
X009684Y017999D02*
X009386Y018296D01*
X009337Y018246D01*
X009358Y017970D02*
X009259Y017970D01*
X009160Y017871D01*
X009160Y017772D01*
X009259Y017673D01*
X009358Y017673D01*
X009457Y017772D01*
X009408Y017921D02*
X009210Y017723D01*
X009181Y017496D02*
X008884Y017794D01*
X008884Y017595D01*
X008686Y017595D01*
X008983Y017298D01*
X009491Y016924D02*
X009717Y016697D01*
X008854Y015947D02*
X008854Y015834D01*
X008741Y015721D01*
X008628Y015721D01*
X008514Y015834D01*
X008514Y015947D01*
X008628Y016061D01*
X008741Y016061D01*
X008854Y015947D01*
X008489Y015583D02*
X008376Y015696D01*
X008263Y015696D01*
X008093Y015526D01*
X007980Y015639D02*
X008320Y015300D01*
X008489Y015470D01*
X008489Y015583D01*
X008190Y015170D02*
X008077Y015057D01*
X008133Y015113D02*
X007793Y015453D01*
X007737Y015396D01*
X007769Y015088D02*
X007655Y015088D01*
X007542Y014975D01*
X007542Y014862D01*
X007655Y014749D01*
X007769Y014749D01*
X007882Y014862D01*
X007825Y015032D02*
X007599Y014805D01*
X007404Y014724D02*
X007574Y014554D01*
X007461Y014441D02*
X007291Y014611D01*
X007291Y014724D01*
X007404Y014724D01*
X007291Y014611D02*
X007178Y014611D01*
X007121Y014554D01*
X007347Y014328D01*
X007213Y014194D02*
X006930Y014137D01*
X006987Y014420D01*
X006704Y014363D02*
X007044Y014024D01*
X006905Y013886D02*
X006736Y013716D01*
X006622Y013716D01*
X006509Y013829D01*
X006509Y013942D01*
X006679Y014112D01*
X006371Y013691D02*
X006258Y013691D01*
X006145Y013578D01*
X005999Y014314D02*
X005702Y014612D01*
X005900Y014413D02*
X006148Y014463D01*
X004905Y013220D02*
X004806Y013121D01*
X004855Y013170D02*
X004657Y013369D01*
X004608Y013319D01*
X004558Y013468D02*
X004509Y013517D01*
X004530Y013142D02*
X004679Y012994D01*
X004530Y013142D02*
X004431Y013142D01*
X004282Y012994D01*
X004480Y012795D01*
X004362Y012677D02*
X004263Y012578D01*
X004313Y012628D02*
X004115Y012826D01*
X004065Y012777D01*
X004016Y012925D02*
X003966Y012975D01*
X003839Y012748D02*
X004136Y012451D01*
X003938Y012253D02*
X003641Y012550D01*
X003839Y012550D01*
X003839Y012748D01*
X004447Y011881D02*
X004617Y011711D01*
X004730Y011711D01*
X004731Y011824D01*
X004844Y011824D01*
X004844Y011937D01*
X004674Y012107D01*
X004812Y012245D02*
X004982Y012075D01*
X005095Y012075D01*
X005095Y012188D01*
X005208Y012189D01*
X005208Y012302D01*
X005038Y012472D01*
X005177Y012610D02*
X005346Y012440D01*
X005460Y012440D01*
X005460Y012553D01*
X005573Y012553D01*
X005573Y012666D01*
X005403Y012836D01*
X007769Y015088D02*
X007825Y015032D01*
X007596Y016506D02*
X007547Y016555D01*
X009358Y017970D02*
X009408Y017921D01*
X011127Y018447D02*
X011240Y018334D01*
X011353Y018334D01*
X011524Y020037D02*
X011474Y020086D01*
X012294Y020067D02*
X012351Y020010D01*
X013052Y021367D02*
X013052Y021763D01*
X013003Y021813D01*
X012903Y021813D01*
X012804Y021714D01*
X012804Y021615D01*
X013052Y021367D02*
X013250Y021565D01*
D13*
X009430Y008109D02*
X009854Y007685D01*
X009855Y007685D02*
X009866Y007671D01*
X009875Y007656D01*
X009881Y007640D01*
X009884Y007623D01*
X009884Y007605D01*
X009881Y007588D01*
X009875Y007572D01*
X009866Y007557D01*
X009855Y007543D01*
X009854Y007543D02*
X009077Y006765D01*
X009063Y006754D01*
X009048Y006745D01*
X009032Y006739D01*
X009015Y006736D01*
X008997Y006736D01*
X008980Y006739D01*
X008964Y006745D01*
X008949Y006754D01*
X008935Y006765D01*
X008511Y007190D01*
X008511Y007189D02*
X008500Y007203D01*
X008491Y007218D01*
X008485Y007234D01*
X008482Y007251D01*
X008482Y007269D01*
X008485Y007286D01*
X008491Y007302D01*
X008500Y007317D01*
X008511Y007331D01*
X009289Y008109D01*
X009288Y008109D02*
X009302Y008120D01*
X009317Y008129D01*
X009333Y008135D01*
X009350Y008138D01*
X009368Y008138D01*
X009385Y008135D01*
X009401Y008129D01*
X009416Y008120D01*
X009430Y008109D01*
X010617Y007734D02*
X008142Y005259D01*
X010263Y003138D01*
X012738Y005613D01*
X010617Y007734D01*
X012261Y006928D02*
X012685Y007353D01*
X012699Y007364D01*
X012714Y007373D01*
X012730Y007379D01*
X012747Y007382D01*
X012765Y007382D01*
X012782Y007379D01*
X012798Y007373D01*
X012813Y007364D01*
X012827Y007353D01*
X013604Y006575D01*
X013605Y006575D02*
X013616Y006561D01*
X013625Y006546D01*
X013631Y006530D01*
X013634Y006513D01*
X013634Y006495D01*
X013631Y006478D01*
X013625Y006462D01*
X013616Y006447D01*
X013605Y006433D01*
X013604Y006433D02*
X013180Y006009D01*
X013166Y005998D01*
X013151Y005989D01*
X013135Y005983D01*
X013118Y005980D01*
X013100Y005980D01*
X013083Y005983D01*
X013067Y005989D01*
X013052Y005998D01*
X013038Y006009D01*
X013039Y006009D02*
X012261Y006787D01*
X012250Y006801D01*
X012241Y006816D01*
X012235Y006832D01*
X012232Y006849D01*
X012232Y006867D01*
X012235Y006884D01*
X012241Y006900D01*
X012250Y006915D01*
X012261Y006929D01*
M02*
