G75*
G70*
%OFA0B0*%
%FSLAX24Y24*%
%IPPOS*%
%LPD*%
%AMOC8*
5,1,8,0,0,1.08239X$1,22.5*
%
%ADD10C,0.0847*%
%ADD11C,0.0160*%
%ADD12C,0.0240*%
%ADD13C,0.0400*%
%ADD14C,0.0760*%
%ADD15C,0.0108*%
%ADD16C,0.1060*%
%ADD17C,0.1560*%
%ADD18C,0.0535*%
D10*
X007690Y018186D03*
D11*
X007333Y017528D02*
X008048Y017528D01*
X008031Y017518D02*
X007922Y017473D01*
X007808Y017445D01*
X007690Y017436D01*
X007573Y017445D01*
X007458Y017473D01*
X007350Y017518D01*
X007249Y017579D01*
X007160Y017656D01*
X007083Y017745D01*
X007022Y017845D01*
X008358Y017845D01*
X008359Y017845D02*
X008297Y017745D01*
X008221Y017656D01*
X008131Y017579D01*
X008031Y017518D01*
X008247Y017687D02*
X007133Y017687D01*
X007022Y017845D02*
X006977Y017954D01*
X006949Y018069D01*
X006940Y018186D01*
X006949Y018303D01*
X006977Y018418D01*
X007022Y018526D01*
X007084Y018627D01*
X007160Y018716D01*
X007249Y018793D01*
X007350Y018854D01*
X007458Y018899D01*
X007573Y018927D01*
X007690Y018936D01*
X007808Y018927D01*
X007922Y018899D01*
X008031Y018854D01*
X008131Y018793D01*
X008221Y018716D01*
X008297Y018627D01*
X008359Y018526D01*
X008404Y018418D01*
X008431Y018303D01*
X008440Y018186D01*
X008431Y018069D01*
X008404Y017954D01*
X008359Y017845D01*
X008416Y018004D02*
X006965Y018004D01*
X006942Y018162D02*
X008438Y018162D01*
X008427Y018321D02*
X006954Y018321D01*
X007003Y018479D02*
X008378Y018479D01*
X008287Y018638D02*
X007093Y018638D01*
X007256Y018796D02*
X008125Y018796D01*
X007690Y017436D02*
X007690Y017436D01*
D12*
X007440Y017436D01*
X007190Y017186D01*
X007190Y017436D02*
X007190Y018686D01*
X009190Y018686D01*
X009190Y019686D01*
X009690Y019686D02*
X009690Y019186D01*
X007690Y019186D01*
X007690Y017436D01*
X008440Y018186D01*
X008690Y018186D02*
X008690Y019686D01*
X008440Y019686D02*
X008190Y019436D01*
X008190Y019686D01*
X008190Y017686D01*
X006190Y017686D01*
X006190Y017436D01*
X006440Y017436D01*
X006690Y017686D01*
X006690Y018186D01*
X006690Y017436D01*
X006940Y017436D02*
X006440Y017436D01*
X006190Y017436D02*
X008190Y019436D01*
X008190Y019686D02*
X010190Y019686D01*
X007940Y017436D01*
X007440Y016936D01*
X005440Y016936D01*
X005940Y017436D01*
X007940Y017436D01*
X010190Y019686D01*
X009940Y019686D01*
X008440Y019686D01*
X008190Y019686D01*
X005940Y017436D01*
X006190Y017436D01*
X005940Y017436D02*
X006690Y018186D01*
X008690Y018186D01*
X007940Y017436D02*
X007690Y017436D01*
X007440Y017436D02*
X006940Y017436D01*
X006690Y017686D01*
X008440Y019436D01*
X008190Y019686D01*
X006690Y018186D01*
X009690Y019436D02*
X009940Y019686D01*
D13*
X009690Y019436D02*
X008940Y018686D01*
X008440Y018186D01*
X008440Y018686D02*
X008190Y018936D01*
X008940Y018936D01*
X008940Y018686D01*
X008440Y018686D01*
X008190Y019436D02*
X009690Y019436D01*
X007534Y017311D02*
X007409Y017186D01*
X007378Y017186D01*
X007253Y017061D01*
X005753Y017061D01*
X005878Y017186D01*
X007190Y017186D01*
D14*
X014195Y003086D03*
X015195Y003086D03*
D15*
X014295Y005365D02*
X014349Y005419D01*
X014349Y005241D01*
X014223Y005115D01*
X014045Y005115D01*
X013919Y005241D01*
X013919Y005419D01*
X014045Y005545D01*
X014223Y005545D01*
X014349Y005419D01*
X014268Y005386D01*
X014268Y005274D01*
X014190Y005196D01*
X014078Y005196D01*
X014000Y005274D01*
X014000Y005386D01*
X014078Y005464D01*
X014190Y005464D01*
X014268Y005386D01*
X014187Y005352D01*
X014187Y005308D01*
X014156Y005277D01*
X014112Y005277D01*
X014081Y005308D01*
X014081Y005352D01*
X014112Y005383D01*
X014156Y005383D01*
X014187Y005352D01*
X011467Y002537D02*
X011521Y002591D01*
X011521Y002413D01*
X011395Y002287D01*
X011217Y002287D01*
X011091Y002413D01*
X011091Y002591D01*
X011217Y002717D01*
X011395Y002717D01*
X011521Y002591D01*
X011440Y002558D01*
X011440Y002446D01*
X011362Y002368D01*
X011250Y002368D01*
X011172Y002446D01*
X011172Y002558D01*
X011250Y002636D01*
X011362Y002636D01*
X011440Y002558D01*
X011359Y002524D01*
X011359Y002480D01*
X011328Y002449D01*
X011284Y002449D01*
X011253Y002480D01*
X011253Y002524D01*
X011284Y002555D01*
X011328Y002555D01*
X011359Y002524D01*
D16*
X010880Y008871D03*
X011880Y009371D03*
X011880Y012371D03*
X010880Y012871D03*
D17*
X002527Y010871D03*
X003527Y010871D03*
X011401Y010871D03*
D18*
X010520Y006770D02*
X010856Y006435D01*
X011439Y005851D02*
X011775Y005515D01*
X011068Y004808D02*
X010732Y005144D01*
X010149Y005728D02*
X009813Y006063D01*
X009106Y005356D02*
X009441Y005020D01*
X010025Y004437D02*
X010361Y004101D01*
M02*
