G75*
G70*
%OFA0B0*%
%FSLAX24Y24*%
%IPPOS*%
%LPD*%
%AMOC8*
5,1,8,0,0,1.08239X$1,22.5*
%
%ADD10C,0.0847*%
%ADD11C,0.0160*%
%ADD12C,0.0760*%
%ADD13C,0.0108*%
%ADD14C,0.1060*%
%ADD15C,0.1560*%
%ADD16C,0.0535*%
D10*
X015190Y020436D03*
D11*
X014718Y021016D02*
X015662Y021016D01*
X015631Y021043D02*
X015721Y020966D01*
X015797Y020877D01*
X015859Y020776D01*
X015904Y020668D01*
X015931Y020553D01*
X015940Y020436D01*
X015931Y020319D01*
X015904Y020204D01*
X015859Y020095D01*
X015797Y019995D01*
X015721Y019906D01*
X014659Y019906D01*
X014660Y019906D02*
X014583Y019995D01*
X014522Y020095D01*
X014477Y020204D01*
X014449Y020319D01*
X014440Y020436D01*
X014449Y020553D01*
X014477Y020668D01*
X014522Y020776D01*
X014584Y020877D01*
X014660Y020966D01*
X014749Y021043D01*
X014850Y021104D01*
X014958Y021149D01*
X015073Y021177D01*
X015190Y021186D01*
X015308Y021177D01*
X015422Y021149D01*
X015531Y021104D01*
X015631Y021043D01*
X015809Y020858D02*
X014572Y020858D01*
X014490Y020699D02*
X015891Y020699D01*
X015932Y020540D02*
X014448Y020540D01*
X014445Y020382D02*
X015936Y020382D01*
X015908Y020223D02*
X014472Y020223D01*
X014541Y020065D02*
X015840Y020065D01*
X015721Y019906D02*
X015631Y019829D01*
X015531Y019768D01*
X015422Y019723D01*
X015308Y019695D01*
X015190Y019686D01*
X015073Y019695D01*
X014958Y019723D01*
X014850Y019768D01*
X014749Y019829D01*
X014660Y019906D01*
X014898Y019748D02*
X015483Y019748D01*
X015190Y019686D02*
X015190Y019686D01*
X015065Y021175D02*
X015316Y021175D01*
D12*
X015195Y003086D03*
X014195Y003086D03*
D13*
X014295Y005365D02*
X014349Y005419D01*
X014349Y005241D01*
X014223Y005115D01*
X014045Y005115D01*
X013919Y005241D01*
X013919Y005419D01*
X014045Y005545D01*
X014223Y005545D01*
X014349Y005419D01*
X014268Y005386D01*
X014268Y005274D01*
X014190Y005196D01*
X014078Y005196D01*
X014000Y005274D01*
X014000Y005386D01*
X014078Y005464D01*
X014190Y005464D01*
X014268Y005386D01*
X014187Y005352D01*
X014187Y005308D01*
X014156Y005277D01*
X014112Y005277D01*
X014081Y005308D01*
X014081Y005352D01*
X014112Y005383D01*
X014156Y005383D01*
X014187Y005352D01*
X011467Y002537D02*
X011521Y002591D01*
X011521Y002413D01*
X011395Y002287D01*
X011217Y002287D01*
X011091Y002413D01*
X011091Y002591D01*
X011217Y002717D01*
X011395Y002717D01*
X011521Y002591D01*
X011440Y002558D01*
X011440Y002446D01*
X011362Y002368D01*
X011250Y002368D01*
X011172Y002446D01*
X011172Y002558D01*
X011250Y002636D01*
X011362Y002636D01*
X011440Y002558D01*
X011359Y002524D01*
X011359Y002480D01*
X011328Y002449D01*
X011284Y002449D01*
X011253Y002480D01*
X011253Y002524D01*
X011284Y002555D01*
X011328Y002555D01*
X011359Y002524D01*
D14*
X010880Y008871D03*
X011880Y009371D03*
X011880Y012371D03*
X010880Y012871D03*
D15*
X002527Y010871D03*
X003527Y010871D03*
X011401Y010871D03*
D16*
X010520Y006770D02*
X010856Y006435D01*
X011439Y005851D02*
X011775Y005515D01*
X011068Y004808D02*
X010732Y005144D01*
X010149Y005728D02*
X009813Y006063D01*
X009106Y005356D02*
X009441Y005020D01*
X010025Y004437D02*
X010361Y004101D01*
M02*
