G75*
G70*
%OFA0B0*%
%FSLAX24Y24*%
%IPPOS*%
%LPD*%
%AMOC8*
5,1,8,0,0,1.08239X$1,22.5*
%
%ADD10C,0.0000*%
%ADD11C,0.1095*%
%ADD12C,0.0700*%
%ADD13R,0.0630X0.0460*%
%ADD14OC8,0.0480*%
%ADD15C,0.0740*%
%ADD16C,0.0240*%
%ADD17C,0.0160*%
%ADD18C,0.0320*%
D10*
X004168Y000988D02*
X004138Y001198D01*
X004228Y001408D01*
X004588Y001708D01*
X005878Y002278D01*
X007948Y003208D01*
X009628Y003808D01*
X010853Y004198D01*
X011218Y005578D01*
X011278Y006178D01*
X011278Y007378D01*
X011098Y008428D01*
X010948Y008818D01*
X010798Y009178D01*
X010288Y009778D01*
X009838Y009955D01*
X009453Y009703D01*
X009298Y009028D01*
X009328Y008698D01*
X009478Y007828D01*
X009685Y007453D01*
X010018Y007498D01*
X010168Y007618D01*
X010408Y007588D01*
X010408Y006958D01*
X010348Y006778D01*
X010198Y006388D01*
X010048Y006208D01*
X009898Y006118D01*
X009748Y006088D01*
X009508Y006148D01*
X008968Y006778D01*
X008578Y007318D01*
X008278Y007918D01*
X007948Y008638D01*
X007648Y009028D01*
X007348Y009208D01*
X006778Y009418D01*
X006568Y009508D01*
X005938Y010138D01*
X005578Y010378D01*
X005158Y010558D01*
X004618Y010798D01*
X004408Y011008D01*
X004078Y011368D01*
X003958Y011548D01*
X003598Y011998D01*
X003118Y012053D01*
X002758Y012083D01*
X002158Y012058D01*
X001378Y011848D01*
X001108Y011850D01*
X000898Y012088D01*
X000868Y012298D01*
X001168Y012598D01*
X001678Y013288D01*
X002128Y014078D01*
X002218Y014198D01*
X002578Y014593D01*
X002808Y014833D01*
X003205Y014895D01*
X003358Y014948D01*
X003598Y015238D01*
X003838Y015688D01*
X004288Y016168D01*
X004885Y016648D01*
X005098Y016615D01*
X005158Y016523D01*
X005158Y016288D01*
X005068Y015958D01*
X004978Y015658D01*
X004798Y015268D01*
X004588Y014998D01*
X004323Y014703D01*
X004300Y014553D01*
X004330Y014493D01*
X004468Y014068D01*
X005008Y013768D01*
X005638Y013678D01*
X006478Y014008D01*
X007198Y014758D01*
X007678Y015538D01*
X007828Y015808D01*
X008608Y017128D01*
X009538Y018148D01*
X010438Y018778D01*
X011488Y019228D01*
X012388Y019438D01*
X013318Y019438D01*
X014128Y019228D01*
X015628Y018538D01*
X017008Y017608D01*
X018718Y016048D01*
X020158Y014488D01*
X021148Y013708D01*
X022888Y012598D01*
X023818Y012238D01*
X024808Y011968D01*
X025678Y012058D01*
X026728Y012418D01*
X028048Y013678D01*
X028428Y014280D01*
X028733Y014428D01*
X028880Y014335D01*
X028975Y014235D01*
X028950Y014000D01*
X028798Y013768D01*
X028618Y013348D01*
X028108Y012448D01*
X027148Y011458D01*
X025708Y010828D01*
X024298Y010648D01*
X023758Y010678D01*
X021718Y011098D01*
X020038Y011848D01*
X018148Y012838D01*
X017700Y012765D01*
X017248Y012328D01*
X016738Y011488D01*
X015868Y010438D01*
X014878Y009898D01*
X014308Y009658D01*
X013798Y008668D01*
X013168Y007048D01*
X012748Y005308D01*
X012568Y004258D01*
X012265Y003393D01*
X010498Y002998D01*
X008668Y002548D01*
X006598Y001828D01*
X004858Y000958D01*
X004438Y000778D01*
X004288Y000838D01*
X004168Y000988D01*
X018294Y014188D02*
X018296Y014227D01*
X018302Y014266D01*
X018312Y014304D01*
X018325Y014341D01*
X018342Y014376D01*
X018362Y014410D01*
X018386Y014441D01*
X018413Y014470D01*
X018442Y014496D01*
X018474Y014519D01*
X018508Y014539D01*
X018544Y014555D01*
X018581Y014567D01*
X018620Y014576D01*
X018659Y014581D01*
X018698Y014582D01*
X018737Y014579D01*
X018776Y014572D01*
X018813Y014561D01*
X018850Y014547D01*
X018885Y014529D01*
X018918Y014508D01*
X018949Y014483D01*
X018977Y014456D01*
X019002Y014426D01*
X019024Y014393D01*
X019043Y014359D01*
X019058Y014323D01*
X019070Y014285D01*
X019078Y014247D01*
X019082Y014208D01*
X019082Y014168D01*
X019078Y014129D01*
X019070Y014091D01*
X019058Y014053D01*
X019043Y014017D01*
X019024Y013983D01*
X019002Y013950D01*
X018977Y013920D01*
X018949Y013893D01*
X018918Y013868D01*
X018885Y013847D01*
X018850Y013829D01*
X018813Y013815D01*
X018776Y013804D01*
X018737Y013797D01*
X018698Y013794D01*
X018659Y013795D01*
X018620Y013800D01*
X018581Y013809D01*
X018544Y013821D01*
X018508Y013837D01*
X018474Y013857D01*
X018442Y013880D01*
X018413Y013906D01*
X018386Y013935D01*
X018362Y013966D01*
X018342Y014000D01*
X018325Y014035D01*
X018312Y014072D01*
X018302Y014110D01*
X018296Y014149D01*
X018294Y014188D01*
D11*
X017063Y014015D02*
X017063Y015110D01*
X008795Y015110D02*
X008795Y014015D01*
D12*
X003188Y013688D03*
X003188Y012688D03*
D13*
X012188Y011988D03*
X012188Y011388D03*
X013438Y011388D03*
X013438Y011988D03*
D14*
X011938Y009688D03*
X011938Y005688D03*
D15*
X008270Y010980D03*
X007563Y011688D03*
X006855Y012395D03*
D16*
X006855Y011020D01*
X007688Y010188D01*
X008688Y010188D01*
X009188Y010688D01*
X010188Y010688D01*
X011188Y009688D01*
X011938Y009688D01*
X012188Y011388D02*
X010988Y011388D01*
X010688Y011688D01*
X007563Y011688D01*
X008230Y012395D02*
X006855Y012395D01*
X008230Y012395D02*
X008438Y012188D01*
X011313Y012188D01*
X011513Y011988D01*
X012188Y011988D01*
X013438Y011988D01*
X013488Y011438D02*
X013438Y011388D01*
X013488Y011438D02*
X014188Y011438D01*
X014563Y011813D01*
X014563Y012313D01*
X014188Y012688D01*
X008688Y012688D01*
X008188Y013188D01*
X004688Y013188D01*
X004188Y013688D01*
X003188Y013688D01*
D17*
X002598Y013688D02*
X002228Y013688D01*
X002188Y013617D02*
X002188Y012339D01*
X002170Y012338D02*
X002139Y012342D01*
X002115Y012336D01*
X002090Y012335D01*
X002062Y012322D01*
X001342Y012128D01*
X001235Y012129D01*
X001169Y012203D01*
X001341Y012375D01*
X001360Y012386D01*
X001380Y012414D01*
X001405Y012439D01*
X001413Y012459D01*
X001880Y013090D01*
X001893Y013101D01*
X001913Y013135D01*
X001936Y013166D01*
X001940Y013182D01*
X002362Y013924D01*
X002433Y014019D01*
X002782Y014402D01*
X002944Y014571D01*
X003218Y014614D01*
X003244Y014612D01*
X003273Y014622D01*
X003304Y014627D01*
X003325Y014640D01*
X003417Y014672D01*
X003439Y014674D01*
X003469Y014690D01*
X003501Y014701D01*
X003518Y014716D01*
X003538Y014726D01*
X003559Y014752D01*
X003585Y014775D01*
X003595Y014795D01*
X003796Y015038D01*
X003818Y015057D01*
X003831Y015081D01*
X003849Y015102D01*
X003857Y015129D01*
X004067Y015523D01*
X004478Y015962D01*
X004863Y016270D01*
X004798Y016035D01*
X004715Y015757D01*
X004557Y015414D01*
X004373Y015177D01*
X004133Y014911D01*
X004111Y014895D01*
X004096Y014870D01*
X004077Y014848D01*
X004068Y014823D01*
X004054Y014799D01*
X004050Y014770D01*
X004040Y014743D01*
X004041Y014716D01*
X004027Y014618D01*
X004017Y014588D01*
X004019Y014564D01*
X004015Y014539D01*
X004022Y014509D01*
X004025Y014477D01*
X004036Y014455D01*
X004042Y014431D01*
X004060Y014406D01*
X004070Y014386D01*
X004180Y014048D01*
X004116Y014048D01*
X003662Y014048D01*
X003522Y014188D01*
X003305Y014278D01*
X003070Y014278D01*
X002853Y014188D01*
X002687Y014022D01*
X002598Y013805D01*
X002598Y013570D01*
X002687Y013353D01*
X002853Y013187D01*
X002959Y013144D01*
X002920Y013124D01*
X002855Y013077D01*
X002799Y013020D01*
X002751Y012955D01*
X002715Y012883D01*
X002690Y012807D01*
X002678Y012728D01*
X002678Y012688D01*
X003187Y012688D01*
X003187Y012687D01*
X002678Y012687D01*
X002678Y012647D01*
X002690Y012568D01*
X002715Y012492D01*
X002751Y012420D01*
X002792Y012364D01*
X002763Y012363D01*
X002725Y012366D01*
X002708Y012361D01*
X002170Y012338D01*
X002688Y012360D02*
X002688Y012584D01*
X002688Y012687D02*
X002688Y012688D01*
X002688Y012791D02*
X002688Y013353D01*
X002853Y013188D02*
X001943Y013188D01*
X001688Y012830D02*
X001688Y012221D01*
X001564Y012188D02*
X001183Y012188D01*
X001188Y012182D02*
X001188Y012222D01*
X001582Y012688D02*
X003187Y012688D01*
X003188Y012688D02*
X003698Y012688D01*
X003698Y012728D01*
X003685Y012807D01*
X003660Y012883D01*
X003624Y012955D01*
X003577Y013020D01*
X003520Y013077D01*
X003455Y013124D01*
X003416Y013144D01*
X003522Y013187D01*
X003662Y013328D01*
X004038Y013328D01*
X004382Y012984D01*
X004484Y012882D01*
X004616Y012828D01*
X006426Y012828D01*
X006338Y012740D01*
X006245Y012516D01*
X006245Y012273D01*
X006338Y012049D01*
X006495Y011892D01*
X006495Y011091D01*
X006495Y010948D01*
X006550Y010816D01*
X007484Y009882D01*
X007616Y009828D01*
X007759Y009828D01*
X008759Y009828D01*
X008891Y009882D01*
X008993Y009984D01*
X009337Y010328D01*
X010038Y010328D01*
X010288Y010079D01*
X009969Y010204D01*
X009949Y010218D01*
X009918Y010224D01*
X009888Y010236D01*
X009864Y010235D01*
X009840Y010240D01*
X009809Y010235D01*
X009777Y010234D01*
X009755Y010224D01*
X009731Y010220D01*
X009704Y010202D01*
X009675Y010190D01*
X009658Y010172D01*
X009301Y009938D01*
X009257Y009910D01*
X009255Y009908D01*
X009252Y009906D01*
X009223Y009863D01*
X009192Y009819D01*
X009191Y009816D01*
X009190Y009814D01*
X009179Y009763D01*
X009027Y009101D01*
X009014Y009058D01*
X009015Y009047D01*
X009012Y009036D01*
X009020Y008992D01*
X009045Y008716D01*
X009042Y008705D01*
X009050Y008661D01*
X009054Y008617D01*
X009059Y008606D01*
X009200Y007788D01*
X009206Y007741D01*
X009210Y007733D01*
X009211Y007725D01*
X009236Y007685D01*
X009415Y007363D01*
X009415Y007360D01*
X009442Y007314D01*
X009467Y007268D01*
X009469Y007266D01*
X009471Y007264D01*
X009513Y007232D01*
X009554Y007199D01*
X009557Y007198D01*
X009560Y007196D01*
X009610Y007183D01*
X009661Y007168D01*
X009664Y007168D01*
X009667Y007168D01*
X009719Y007175D01*
X009772Y007181D01*
X009775Y007182D01*
X010021Y007215D01*
X010042Y007213D01*
X010076Y007223D01*
X010110Y007228D01*
X010128Y007238D01*
X010128Y007003D01*
X010084Y006872D01*
X009953Y006531D01*
X009863Y006423D01*
X009795Y006383D01*
X009754Y006374D01*
X009662Y006398D01*
X009188Y006951D01*
X008818Y007463D01*
X008530Y008038D01*
X008212Y008733D01*
X008203Y008764D01*
X008189Y008783D01*
X008179Y008805D01*
X008155Y008827D01*
X007871Y009197D01*
X007839Y009239D01*
X007837Y009240D01*
X007836Y009242D01*
X007789Y009269D01*
X007516Y009433D01*
X007497Y009451D01*
X007469Y009461D01*
X007444Y009476D01*
X007417Y009480D01*
X006881Y009678D01*
X006727Y009744D01*
X006155Y010316D01*
X006139Y010340D01*
X006116Y010355D01*
X006096Y010375D01*
X006070Y010386D01*
X005757Y010594D01*
X005739Y010613D01*
X005711Y010625D01*
X005687Y010641D01*
X005661Y010646D01*
X005271Y010813D01*
X004779Y011032D01*
X004610Y011201D01*
X004299Y011541D01*
X004214Y011667D01*
X004211Y011679D01*
X004184Y011713D01*
X004160Y011749D01*
X004149Y011756D01*
X003818Y012170D01*
X003782Y012215D01*
X003782Y012216D01*
X003781Y012216D01*
X003736Y012241D01*
X003685Y012269D01*
X003684Y012269D01*
X003684Y012270D01*
X003633Y012275D01*
X003508Y012290D01*
X003520Y012299D01*
X003577Y012355D01*
X003624Y012420D01*
X003660Y012492D01*
X003685Y012568D01*
X003698Y012647D01*
X003698Y012687D01*
X003188Y012687D01*
X003188Y012688D01*
X006317Y012688D01*
X006188Y012828D02*
X006188Y010283D01*
X006283Y010188D02*
X007178Y010188D01*
X007188Y010178D02*
X007188Y009565D01*
X007688Y009330D02*
X007688Y009828D01*
X008188Y009828D02*
X008188Y008786D01*
X008233Y008688D02*
X009045Y008688D01*
X009131Y008188D02*
X008462Y008188D01*
X009188Y007862D02*
X009188Y006951D01*
X009017Y007188D02*
X009592Y007188D01*
X009688Y007170D02*
X009688Y006391D01*
X009413Y006688D02*
X010013Y006688D01*
X010128Y007188D02*
X009814Y007188D01*
X009235Y007688D02*
X008706Y007688D01*
X008688Y007724D02*
X008688Y009828D01*
X009162Y009688D02*
X006858Y009688D01*
X006688Y009783D02*
X006688Y010678D01*
X006678Y010688D02*
X005565Y010688D01*
X005688Y010641D02*
X005688Y012828D01*
X005188Y012828D02*
X005188Y010851D01*
X004688Y011123D02*
X004688Y012828D01*
X004188Y013178D02*
X004188Y011708D01*
X004204Y011688D02*
X006495Y011688D01*
X006281Y012188D02*
X003804Y012188D01*
X003688Y012268D02*
X003688Y012584D01*
X003688Y012687D02*
X003688Y012688D01*
X003688Y012791D02*
X003688Y013328D01*
X003522Y013188D02*
X004178Y013188D01*
X003688Y014048D02*
X003688Y014907D01*
X003465Y014688D02*
X004037Y014688D01*
X004188Y014971D02*
X004188Y015652D01*
X004221Y015688D02*
X004683Y015688D01*
X004688Y015697D02*
X004688Y016130D01*
X004759Y016188D02*
X004840Y016188D01*
X004381Y015188D02*
X003888Y015188D01*
X003188Y014609D02*
X003188Y014278D01*
X003522Y014188D02*
X004134Y014188D01*
X002853Y014188D02*
X002587Y014188D01*
X002688Y014298D02*
X002688Y014022D01*
X004623Y011188D02*
X006495Y011188D01*
X007878Y009188D02*
X009047Y009188D01*
X009188Y009803D02*
X009188Y010178D01*
X009197Y010188D02*
X009673Y010188D01*
X009688Y010195D02*
X009688Y010328D01*
X010011Y010188D02*
X010178Y010188D01*
X010188Y010178D02*
X010188Y010118D01*
D18*
X011938Y007938D02*
X013438Y009438D01*
X013438Y011388D01*
X011938Y007938D02*
X011938Y005688D01*
M02*
