G75*
G70*
%OFA0B0*%
%FSLAX24Y24*%
%IPPOS*%
%LPD*%
%AMOC8*
5,1,8,0,0,1.08239X$1,22.5*
%
%ADD10C,0.0700*%
%ADD11C,0.0096*%
%ADD12C,0.1000*%
%ADD13C,0.1500*%
%ADD14C,0.0475*%
%ADD15C,0.0160*%
D10*
X014195Y003086D03*
X015195Y003086D03*
D11*
X014277Y005361D02*
X014325Y005409D01*
X014325Y005251D01*
X014213Y005139D01*
X014055Y005139D01*
X013943Y005251D01*
X013943Y005409D01*
X014055Y005521D01*
X014213Y005521D01*
X014325Y005409D01*
X014253Y005380D01*
X014253Y005280D01*
X014184Y005211D01*
X014084Y005211D01*
X014015Y005280D01*
X014015Y005380D01*
X014084Y005449D01*
X014184Y005449D01*
X014253Y005380D01*
X014181Y005350D01*
X014181Y005310D01*
X014154Y005283D01*
X014114Y005283D01*
X014087Y005310D01*
X014087Y005350D01*
X014114Y005377D01*
X014154Y005377D01*
X014181Y005350D01*
X011449Y002533D02*
X011497Y002581D01*
X011497Y002423D01*
X011385Y002311D01*
X011227Y002311D01*
X011115Y002423D01*
X011115Y002581D01*
X011227Y002693D01*
X011385Y002693D01*
X011497Y002581D01*
X011425Y002552D01*
X011425Y002452D01*
X011356Y002383D01*
X011256Y002383D01*
X011187Y002452D01*
X011187Y002552D01*
X011256Y002621D01*
X011356Y002621D01*
X011425Y002552D01*
X011353Y002522D01*
X011353Y002482D01*
X011326Y002455D01*
X011286Y002455D01*
X011259Y002482D01*
X011259Y002522D01*
X011286Y002549D01*
X011326Y002549D01*
X011353Y002522D01*
D12*
X010880Y008871D03*
X011880Y009371D03*
X011880Y012371D03*
X010880Y012871D03*
D13*
X011401Y010871D03*
X003527Y010871D03*
X002527Y010871D03*
D14*
X009106Y005356D02*
X009441Y005020D01*
X010025Y004437D02*
X010361Y004101D01*
X011068Y004808D02*
X010732Y005144D01*
X010149Y005728D02*
X009813Y006063D01*
X010520Y006770D02*
X010856Y006435D01*
X011439Y005851D02*
X011775Y005515D01*
D15*
X004190Y005332D02*
X004190Y010247D01*
X004213Y010270D02*
X004286Y010364D01*
X004345Y010467D01*
X004391Y010578D01*
X004422Y010693D01*
X004437Y010811D01*
X004437Y010852D01*
X003546Y010852D01*
X003546Y009961D01*
X003587Y009961D01*
X003705Y009976D01*
X003821Y010007D01*
X003931Y010053D01*
X004034Y010113D01*
X004129Y010185D01*
X004213Y010270D01*
X004129Y010186D02*
X010686Y010186D01*
X010690Y010182D02*
X010690Y009593D01*
X010733Y009611D02*
X010461Y009498D01*
X010253Y009290D01*
X010140Y009018D01*
X010140Y008724D01*
X010253Y008452D01*
X010461Y008243D01*
X010733Y008131D01*
X011027Y008131D01*
X011299Y008243D01*
X011508Y008452D01*
X011604Y008684D01*
X011733Y008631D01*
X012027Y008631D01*
X012299Y008743D01*
X012508Y008952D01*
X012620Y009224D01*
X012620Y009349D01*
X012793Y008744D01*
X012802Y008700D01*
X012808Y008691D01*
X012811Y008680D01*
X012839Y008645D01*
X015679Y004447D01*
X015680Y004443D01*
X015711Y004400D01*
X015740Y004358D01*
X015743Y004356D01*
X016285Y003596D01*
X016285Y002552D01*
X015529Y001796D01*
X014506Y001341D01*
X012225Y001341D01*
X010774Y001704D01*
X007816Y002813D01*
X004742Y004780D01*
X003401Y006121D01*
X002179Y007710D01*
X001340Y009388D01*
X001222Y010801D01*
X001463Y012365D01*
X002186Y014293D01*
X004011Y016484D01*
X005733Y017836D01*
X009078Y020190D01*
X012776Y021793D01*
X014421Y022145D01*
X015983Y021588D01*
X016392Y020668D01*
X015932Y019173D01*
X013589Y015103D01*
X013573Y015086D01*
X013561Y015055D01*
X013545Y015027D01*
X013542Y015004D01*
X012615Y012531D01*
X012508Y012790D01*
X012299Y012998D01*
X012027Y013111D01*
X011733Y013111D01*
X011604Y013057D01*
X011508Y013290D01*
X011299Y013498D01*
X011027Y013611D01*
X010733Y013611D01*
X010461Y013498D01*
X010253Y013290D01*
X010140Y013018D01*
X010140Y012724D01*
X010253Y012452D01*
X010461Y012243D01*
X010733Y012131D01*
X011027Y012131D01*
X011156Y012184D01*
X011253Y011952D01*
X011344Y011861D01*
X011204Y011861D01*
X010841Y011710D01*
X010562Y011432D01*
X010411Y011068D01*
X010411Y010674D01*
X010562Y010310D01*
X010841Y010032D01*
X011204Y009881D01*
X011344Y009881D01*
X011253Y009790D01*
X011156Y009557D01*
X011027Y009611D01*
X010733Y009611D01*
X011190Y009639D02*
X011190Y009887D01*
X011210Y009686D02*
X001315Y009686D01*
X001273Y010186D02*
X001925Y010186D01*
X001926Y010185D02*
X002021Y010113D01*
X002124Y010053D01*
X002234Y010007D01*
X002349Y009976D01*
X002468Y009961D01*
X002509Y009961D01*
X002509Y010852D01*
X002546Y010852D01*
X002546Y009961D01*
X002587Y009961D01*
X002705Y009976D01*
X002821Y010007D01*
X002931Y010053D01*
X003027Y010109D01*
X003124Y010053D01*
X003234Y010007D01*
X003349Y009976D01*
X003468Y009961D01*
X003509Y009961D01*
X003509Y010852D01*
X003546Y010852D01*
X003546Y010889D01*
X004437Y010889D01*
X004437Y010930D01*
X004422Y011049D01*
X004391Y011164D01*
X004345Y011274D01*
X004286Y011377D01*
X004213Y011472D01*
X004129Y011556D01*
X004034Y011629D01*
X003931Y011689D01*
X003821Y011734D01*
X003705Y011765D01*
X003587Y011781D01*
X003546Y011781D01*
X003546Y010889D01*
X003509Y010889D01*
X003509Y010852D01*
X003437Y010852D01*
X002546Y010852D01*
X002546Y010889D01*
X003437Y010889D01*
X003509Y010889D01*
X003509Y011781D01*
X003468Y011781D01*
X003349Y011765D01*
X003234Y011734D01*
X003124Y011689D01*
X003027Y011633D01*
X002931Y011689D01*
X002821Y011734D01*
X002705Y011765D01*
X002587Y011781D01*
X002546Y011781D01*
X002546Y010889D01*
X002509Y010889D01*
X002509Y010852D01*
X001617Y010852D01*
X001617Y010811D01*
X001633Y010693D01*
X001664Y010578D01*
X001710Y010467D01*
X001769Y010364D01*
X001842Y010270D01*
X001926Y010185D01*
X001690Y010514D02*
X001690Y008687D01*
X001691Y008686D02*
X010156Y008686D01*
X010190Y008603D02*
X010190Y007116D01*
X010249Y007175D02*
X010115Y007041D01*
X010042Y006865D01*
X010042Y006675D01*
X010115Y006500D01*
X010585Y006030D01*
X010761Y005957D01*
X010951Y005957D01*
X010969Y005965D01*
X010962Y005946D01*
X010962Y005756D01*
X011034Y005581D01*
X011504Y005111D01*
X011680Y005038D01*
X011870Y005038D01*
X012045Y005111D01*
X012180Y005245D01*
X012252Y005420D01*
X012252Y005610D01*
X012180Y005786D01*
X011709Y006256D01*
X011534Y006329D01*
X011344Y006329D01*
X011325Y006321D01*
X011333Y006340D01*
X011333Y006530D01*
X011260Y006705D01*
X010790Y007175D01*
X010615Y007248D01*
X010425Y007248D01*
X010249Y007175D01*
X010275Y007186D02*
X002582Y007186D01*
X002690Y007045D02*
X002690Y009974D01*
X002546Y010186D02*
X002509Y010186D01*
X002190Y010026D02*
X002190Y007695D01*
X002197Y007686D02*
X013488Y007686D01*
X013690Y007387D02*
X013690Y005565D01*
X013655Y005529D02*
X013655Y005131D01*
X013936Y004850D01*
X014333Y004850D01*
X014614Y005131D01*
X014614Y005529D01*
X014333Y005810D01*
X013936Y005810D01*
X013655Y005529D01*
X013811Y005686D02*
X012221Y005686D01*
X012190Y005760D02*
X012190Y008698D01*
X012160Y008686D02*
X012810Y008686D01*
X012690Y009104D02*
X012690Y001341D01*
X012190Y001349D02*
X012190Y005271D01*
X012121Y005186D02*
X013655Y005186D01*
X013690Y005095D02*
X013690Y003158D01*
X013695Y003186D02*
X007233Y003186D01*
X007190Y003213D02*
X007190Y018862D01*
X006940Y018686D02*
X015651Y018686D01*
X015690Y018754D02*
X015690Y019983D01*
X015761Y020054D02*
X015864Y020302D01*
X015864Y020570D01*
X015761Y020817D01*
X015572Y021007D01*
X015324Y021109D01*
X015056Y021109D01*
X014809Y021007D01*
X014619Y020817D01*
X014517Y020570D01*
X014517Y020302D01*
X014619Y020054D01*
X014809Y019865D01*
X015056Y019762D01*
X015324Y019762D01*
X015572Y019865D01*
X015761Y020054D01*
X015816Y020186D02*
X016243Y020186D01*
X016190Y020013D02*
X016190Y021121D01*
X016162Y021186D02*
X011375Y021186D01*
X011190Y021106D02*
X011190Y013543D01*
X011551Y013186D02*
X012860Y013186D01*
X012690Y012733D02*
X012690Y021756D01*
X012529Y021686D02*
X015708Y021686D01*
X015690Y021692D02*
X015690Y020889D01*
X015816Y020686D02*
X016384Y020686D01*
X016090Y019686D02*
X008361Y019686D01*
X008190Y019566D02*
X008190Y002672D01*
X008154Y002686D02*
X010826Y002686D01*
X010826Y002700D02*
X010826Y002303D01*
X011107Y002022D01*
X011505Y002022D01*
X011786Y002303D01*
X011786Y002700D01*
X011505Y002981D01*
X011107Y002981D01*
X010826Y002700D01*
X011190Y002981D02*
X011190Y004342D01*
X011163Y004331D02*
X011338Y004403D01*
X011473Y004538D01*
X011545Y004713D01*
X011545Y004903D01*
X011473Y005079D01*
X011002Y005549D01*
X010827Y005622D01*
X010637Y005622D01*
X010618Y005614D01*
X010626Y005633D01*
X010626Y005822D01*
X010553Y005998D01*
X010083Y006468D01*
X009908Y006541D01*
X009718Y006541D01*
X009542Y006468D01*
X009408Y006334D01*
X009335Y006158D01*
X009335Y005968D01*
X009408Y005793D01*
X009878Y005323D01*
X010054Y005250D01*
X010243Y005250D01*
X010262Y005258D01*
X010254Y005239D01*
X010254Y005049D01*
X010327Y004874D01*
X010797Y004403D01*
X010973Y004331D01*
X011163Y004331D01*
X010838Y004196D02*
X010765Y004372D01*
X010295Y004842D01*
X010120Y004914D01*
X009930Y004914D01*
X009911Y004907D01*
X009919Y004925D01*
X009919Y005115D01*
X009846Y005291D01*
X009376Y005761D01*
X009201Y005834D01*
X009011Y005834D01*
X008835Y005761D01*
X008701Y005627D01*
X008628Y005451D01*
X008628Y005261D01*
X008701Y005086D01*
X009171Y004616D01*
X009346Y004543D01*
X009536Y004543D01*
X009555Y004551D01*
X009547Y004532D01*
X009547Y004342D01*
X009620Y004167D01*
X010090Y003696D01*
X010266Y003624D01*
X010456Y003624D01*
X010631Y003696D01*
X010765Y003831D01*
X010838Y004006D01*
X010838Y004196D01*
X010838Y004186D02*
X015864Y004186D01*
X015690Y004429D02*
X015690Y003425D01*
X015695Y003420D02*
X015529Y003586D01*
X015313Y003676D01*
X015078Y003676D01*
X014861Y003586D01*
X014695Y003420D01*
X014651Y003314D01*
X014631Y003353D01*
X014584Y003418D01*
X014527Y003475D01*
X014463Y003522D01*
X014391Y003558D01*
X014315Y003583D01*
X014235Y003596D01*
X014195Y003596D01*
X014155Y003596D01*
X014076Y003583D01*
X013999Y003558D01*
X013928Y003522D01*
X013863Y003475D01*
X013806Y003418D01*
X013759Y003353D01*
X013723Y003282D01*
X013698Y003205D01*
X013685Y003126D01*
X013685Y003086D01*
X014195Y003086D01*
X014195Y003086D01*
X014195Y003596D01*
X014195Y003086D01*
X014195Y003086D01*
X013685Y003086D01*
X013685Y003046D01*
X013698Y002966D01*
X013723Y002890D01*
X013759Y002819D01*
X013806Y002754D01*
X013863Y002697D01*
X013928Y002650D01*
X013999Y002613D01*
X014076Y002588D01*
X014155Y002576D01*
X014195Y002576D01*
X014195Y003085D01*
X014195Y003085D01*
X014195Y002576D01*
X014235Y002576D01*
X014315Y002588D01*
X014391Y002613D01*
X014463Y002650D01*
X014527Y002697D01*
X014584Y002754D01*
X014631Y002819D01*
X014651Y002857D01*
X014695Y002752D01*
X014861Y002586D01*
X015078Y002496D01*
X015313Y002496D01*
X015529Y002586D01*
X015695Y002752D01*
X015785Y002968D01*
X015785Y003203D01*
X015695Y003420D01*
X015785Y003186D02*
X016285Y003186D01*
X016285Y002686D02*
X015630Y002686D01*
X015690Y002746D02*
X015690Y001957D01*
X015919Y002186D02*
X011669Y002186D01*
X011690Y002207D02*
X011690Y001474D01*
X011190Y001599D02*
X011190Y002022D01*
X010943Y002186D02*
X009488Y002186D01*
X009690Y002110D02*
X009690Y004096D01*
X009612Y004186D02*
X005671Y004186D01*
X005690Y004173D02*
X005690Y017803D01*
X005541Y017686D02*
X015076Y017686D01*
X015190Y017885D02*
X015190Y019762D01*
X014690Y019983D02*
X014690Y017017D01*
X014788Y017186D02*
X004905Y017186D01*
X004690Y017017D02*
X004690Y004832D01*
X004889Y004686D02*
X009101Y004686D01*
X009190Y004608D02*
X009190Y002297D01*
X008690Y002485D02*
X008690Y005111D01*
X008659Y005186D02*
X004336Y005186D01*
X003836Y005686D02*
X008760Y005686D01*
X008690Y005601D02*
X008690Y019918D01*
X009071Y020186D02*
X014565Y020186D01*
X014565Y020686D02*
X010221Y020686D01*
X010190Y020672D02*
X010190Y013139D01*
X010210Y013186D02*
X001770Y013186D01*
X001690Y012972D02*
X001690Y011228D01*
X001673Y011186D02*
X001281Y011186D01*
X001633Y011049D02*
X001617Y010930D01*
X001617Y010889D01*
X002509Y010889D01*
X002509Y011781D01*
X002468Y011781D01*
X002349Y011765D01*
X002234Y011734D01*
X002124Y011689D01*
X002021Y011629D01*
X001926Y011556D01*
X001842Y011472D01*
X001769Y011377D01*
X001710Y011274D01*
X001664Y011164D01*
X001633Y011049D01*
X001690Y010889D02*
X001690Y010852D01*
X001635Y010686D02*
X001232Y010686D01*
X001358Y011686D02*
X002119Y011686D01*
X002190Y011716D02*
X002190Y014299D01*
X002145Y014186D02*
X013235Y014186D01*
X013190Y014067D02*
X013190Y021882D01*
X013690Y021989D02*
X013690Y015280D01*
X013636Y015186D02*
X002930Y015186D01*
X002690Y014899D02*
X002690Y011767D01*
X002546Y011686D02*
X002509Y011686D01*
X002936Y011686D02*
X003119Y011686D01*
X003190Y011716D02*
X003190Y015499D01*
X003346Y015686D02*
X013924Y015686D01*
X014190Y016148D02*
X014190Y022096D01*
X014690Y022049D02*
X014690Y020889D01*
X015190Y021109D02*
X015190Y021871D01*
X015936Y019186D02*
X007650Y019186D01*
X007690Y019214D02*
X007690Y002893D01*
X006690Y003533D02*
X006690Y018510D01*
X006229Y018186D02*
X015363Y018186D01*
X014500Y016686D02*
X004268Y016686D01*
X004190Y016624D02*
X004190Y011495D01*
X003936Y011686D02*
X010816Y011686D01*
X010690Y011560D02*
X010690Y012149D01*
X010600Y012186D02*
X001435Y012186D01*
X001583Y012686D02*
X010156Y012686D01*
X010190Y012603D02*
X010190Y009139D01*
X010210Y009186D02*
X001441Y009186D01*
X001941Y008186D02*
X010600Y008186D01*
X010690Y008149D02*
X010690Y007217D01*
X010765Y007186D02*
X013826Y007186D01*
X014165Y006686D02*
X011268Y006686D01*
X011190Y006775D02*
X011190Y008198D01*
X011160Y008186D02*
X013150Y008186D01*
X013190Y008126D02*
X013190Y001341D01*
X013690Y001341D02*
X013690Y003014D01*
X013690Y003086D02*
X013690Y003086D01*
X013878Y002686D02*
X011786Y002686D01*
X011690Y002796D02*
X011690Y005038D01*
X011534Y004686D02*
X015518Y004686D01*
X015190Y005170D02*
X015190Y003676D01*
X014690Y003408D02*
X014690Y005909D01*
X014841Y005686D02*
X014457Y005686D01*
X014190Y005810D02*
X014190Y006648D01*
X014503Y006186D02*
X011780Y006186D01*
X011690Y006264D02*
X011690Y008649D01*
X012604Y009186D02*
X012667Y009186D01*
X011190Y011855D02*
X011190Y012103D01*
X010460Y011186D02*
X004382Y011186D01*
X004190Y010889D02*
X004190Y010852D01*
X004420Y010686D02*
X010411Y010686D01*
X012190Y013043D02*
X012190Y021539D01*
X011690Y021322D02*
X011690Y013093D01*
X012551Y012686D02*
X012672Y012686D01*
X013047Y013686D02*
X001958Y013686D01*
X002513Y014686D02*
X013422Y014686D01*
X014212Y016186D02*
X003763Y016186D01*
X003690Y016099D02*
X003690Y011767D01*
X003546Y011686D02*
X003509Y011686D01*
X003509Y011186D02*
X003546Y011186D01*
X003690Y010889D02*
X003690Y010852D01*
X003546Y010686D02*
X003509Y010686D01*
X003190Y010852D02*
X003190Y010889D01*
X002690Y010889D02*
X002690Y010852D01*
X002546Y010686D02*
X002509Y010686D01*
X002190Y010852D02*
X002190Y010889D01*
X002509Y011186D02*
X002546Y011186D01*
X002440Y012186D02*
X002440Y009686D01*
X003190Y010026D02*
X003190Y006395D01*
X003351Y006186D02*
X009347Y006186D01*
X009690Y006529D02*
X009690Y020456D01*
X009190Y020239D02*
X009190Y005834D01*
X009451Y005686D02*
X009515Y005686D01*
X009690Y005511D02*
X009690Y005447D01*
X009890Y005186D02*
X010254Y005186D01*
X010190Y005250D02*
X010190Y004885D01*
X010451Y004686D02*
X010515Y004686D01*
X010690Y004511D02*
X010690Y004447D01*
X010690Y003756D02*
X010690Y001735D01*
X010845Y001686D02*
X015282Y001686D01*
X015190Y001645D02*
X015190Y002496D01*
X014761Y002686D02*
X014512Y002686D01*
X014690Y002763D02*
X014690Y001423D01*
X014190Y001341D02*
X014190Y002576D01*
X014195Y002686D02*
X014195Y002686D01*
X014190Y003086D02*
X014190Y003086D01*
X014195Y003186D02*
X014195Y003186D01*
X014190Y003596D02*
X014190Y004850D01*
X014614Y005186D02*
X015179Y005186D01*
X016190Y003729D02*
X016190Y002457D01*
X016221Y003686D02*
X010606Y003686D01*
X010190Y003655D02*
X010190Y001922D01*
X010116Y003686D02*
X006452Y003686D01*
X006190Y003853D02*
X006190Y018158D01*
X005190Y017410D02*
X005190Y004493D01*
X003690Y005832D02*
X003690Y009974D01*
X003546Y010186D02*
X003509Y010186D01*
X002967Y006686D02*
X010042Y006686D01*
X010190Y006425D02*
X010190Y006361D01*
X010365Y006186D02*
X010429Y006186D01*
X010690Y005986D02*
X010690Y005622D01*
X010626Y005686D02*
X010991Y005686D01*
X011190Y005425D02*
X011190Y005361D01*
X011365Y005186D02*
X011429Y005186D01*
X010690Y013593D02*
X010690Y020889D01*
M02*
