G75*
G70*
%OFA0B0*%
%FSLAX24Y24*%
%IPPOS*%
%LPD*%
%AMOC8*
5,1,8,0,0,1.08239X$1,22.5*
%
%ADD10C,0.0847*%
%ADD11C,0.0160*%
%ADD12C,0.1155*%
%ADD13C,0.0760*%
%ADD14R,0.0690X0.0520*%
%ADD15R,0.0720X0.0060*%
%ADD16OC8,0.0540*%
%ADD17C,0.0800*%
D10*
X018688Y014188D03*
D11*
X018058Y014591D02*
X019317Y014591D01*
X019294Y014628D02*
X019356Y014528D01*
X019401Y014419D01*
X019428Y014305D01*
X019438Y014188D01*
X019428Y014070D01*
X019401Y013956D01*
X019356Y013847D01*
X019294Y013747D01*
X019218Y013657D01*
X019128Y013581D01*
X019028Y013519D01*
X018919Y013474D01*
X018805Y013447D01*
X018688Y013438D01*
X018688Y013438D01*
X018570Y013447D01*
X018456Y013474D01*
X018347Y013519D01*
X018247Y013581D01*
X018157Y013657D01*
X018081Y013747D01*
X018019Y013847D01*
X017974Y013956D01*
X017947Y014070D01*
X017938Y014188D01*
X017947Y014305D01*
X017974Y014419D01*
X018019Y014528D01*
X018081Y014628D01*
X018157Y014718D01*
X018247Y014794D01*
X018347Y014856D01*
X018456Y014901D01*
X018570Y014928D01*
X018688Y014938D01*
X018805Y014928D01*
X018919Y014901D01*
X019028Y014856D01*
X019128Y014794D01*
X019218Y014718D01*
X019294Y014628D01*
X019181Y014749D02*
X018194Y014749D01*
X018484Y014908D02*
X018891Y014908D01*
X019396Y014432D02*
X017980Y014432D01*
X017944Y014274D02*
X019431Y014274D01*
X019432Y014115D02*
X017943Y014115D01*
X017974Y013956D02*
X019401Y013956D01*
X019326Y013798D02*
X018049Y013798D01*
X018178Y013639D02*
X019197Y013639D01*
X018935Y013481D02*
X018440Y013481D01*
D12*
X017063Y014015D02*
X017063Y015110D01*
X008795Y015110D02*
X008795Y014015D01*
D13*
X003188Y013688D03*
X003188Y012688D03*
D14*
X012188Y011988D03*
X012188Y011388D03*
X013438Y011388D03*
X013438Y011988D03*
D15*
X013438Y011688D03*
X012188Y011688D03*
D16*
X011938Y005688D03*
X011938Y009688D03*
D17*
X008270Y010980D03*
X007563Y011688D03*
X006855Y012395D03*
M02*
