G75*
G70*
%OFA0B0*%
%FSLAX24Y24*%
%IPPOS*%
%LPD*%
%AMOC8*
5,1,8,0,0,1.08239X$1,22.5*
%
%ADD10C,0.0040*%
%ADD11C,0.0080*%
%ADD12C,0.0060*%
%ADD13R,0.0240X0.0340*%
D10*
X012530Y007150D02*
X012530Y007284D01*
X012530Y007217D02*
X012730Y007217D01*
X012664Y007150D01*
X012697Y007371D02*
X012730Y007404D01*
X012730Y007471D01*
X012697Y007505D01*
X012563Y007371D01*
X012530Y007404D01*
X012530Y007471D01*
X012563Y007505D01*
X012697Y007505D01*
X012697Y007592D02*
X012730Y007625D01*
X012730Y007692D01*
X012697Y007726D01*
X012563Y007592D01*
X012530Y007625D01*
X012530Y007692D01*
X012563Y007726D01*
X012697Y007726D01*
X012697Y007592D02*
X012563Y007592D01*
X012563Y007371D02*
X012697Y007371D01*
X012730Y008034D02*
X012530Y008034D01*
X012597Y008034D02*
X012597Y008134D01*
X012630Y008168D01*
X012697Y008168D01*
X012730Y008134D01*
X012730Y008034D01*
X012597Y008101D02*
X012530Y008168D01*
X019467Y012458D02*
X019598Y012435D01*
X019533Y012447D02*
X019567Y012644D01*
X019621Y012566D01*
X019685Y012420D02*
X019816Y012397D01*
X019750Y012408D02*
X019785Y012605D01*
X019839Y012528D01*
X019931Y012546D02*
X020039Y012391D01*
X020001Y012364D01*
X019935Y012376D01*
X019908Y012414D01*
X019931Y012546D01*
X019970Y012573D01*
X020035Y012561D01*
X020062Y012523D01*
X020039Y012391D01*
X020120Y012343D02*
X020251Y012320D01*
X020143Y012475D01*
X020149Y012507D01*
X020187Y012535D01*
X020253Y012523D01*
X020280Y012484D01*
X020554Y012301D02*
X020587Y012295D01*
X020581Y012262D01*
X020548Y012268D01*
X020554Y012301D01*
X020548Y012268D02*
X020602Y012190D01*
X020700Y012241D02*
X020717Y012339D01*
X020756Y012367D01*
X020855Y012349D01*
X020831Y012218D01*
X020923Y012235D02*
X020935Y012301D01*
X020974Y012328D01*
X021039Y012317D01*
X021066Y012278D01*
X021055Y012212D01*
X021016Y012185D01*
X020950Y012197D01*
X020923Y012235D01*
X021128Y012165D02*
X021167Y012193D01*
X021190Y012324D01*
X021152Y012297D02*
X021217Y012285D01*
X021303Y012270D02*
X021402Y012253D01*
X021429Y012214D01*
X021390Y012187D01*
X021325Y012199D01*
X021286Y012172D01*
X021313Y012133D01*
X021412Y012116D01*
X021509Y012166D02*
X021641Y012143D01*
X021647Y012176D02*
X021620Y012214D01*
X021554Y012226D01*
X021515Y012199D01*
X021509Y012166D01*
X021531Y012095D02*
X021596Y012083D01*
X021635Y012110D01*
X021647Y012176D01*
X021715Y012062D02*
X021750Y012259D01*
X021882Y012236D02*
X021847Y012039D01*
X021793Y012116D01*
X021715Y012062D01*
X022162Y012051D02*
X022294Y012028D01*
X022299Y012061D02*
X022272Y012099D01*
X022207Y012111D01*
X022168Y012084D01*
X022162Y012051D01*
X022184Y011980D02*
X022249Y011968D01*
X022288Y011995D01*
X022299Y012061D01*
X022388Y012079D02*
X022475Y011996D01*
X022365Y011948D01*
X022463Y011930D02*
X022498Y012127D01*
X022573Y012046D02*
X022550Y011915D01*
X022648Y011898D01*
X022687Y011925D01*
X022704Y012023D01*
X022767Y011877D02*
X022899Y011854D01*
X022933Y012051D01*
X023226Y011931D02*
X023197Y011767D01*
X023224Y011729D01*
X023256Y011723D01*
X023301Y011783D02*
X023202Y011800D01*
X023301Y011783D02*
X023340Y011810D01*
X023357Y011908D01*
X023437Y011860D02*
X023476Y011887D01*
X023575Y011870D01*
X023586Y011936D02*
X023551Y011738D01*
X023453Y011756D01*
X023426Y011794D01*
X023437Y011860D01*
X023873Y011783D02*
X023855Y011685D01*
X023873Y011783D02*
X023911Y011811D01*
X024010Y011793D01*
X023987Y011662D01*
X024073Y011647D02*
X024171Y011629D01*
X024210Y011656D01*
X024222Y011722D01*
X024194Y011761D01*
X024096Y011778D01*
X024067Y011614D01*
X024094Y011575D01*
X024127Y011569D01*
X024284Y011609D02*
X024349Y011598D01*
X024316Y011604D02*
X024340Y011735D01*
X024372Y011729D01*
X024351Y011801D02*
X024357Y011834D01*
X024459Y011714D02*
X024557Y011697D01*
X024584Y011658D01*
X024546Y011631D01*
X024480Y011643D01*
X024441Y011616D01*
X024468Y011577D01*
X024567Y011560D01*
X024665Y011610D02*
X024796Y011587D01*
X024802Y011620D02*
X024775Y011658D01*
X024709Y011670D01*
X024670Y011643D01*
X024665Y011610D01*
X024686Y011539D02*
X024752Y011527D01*
X024790Y011554D01*
X024802Y011620D01*
X024894Y011637D02*
X024992Y011620D01*
X025019Y011581D01*
X025008Y011516D01*
X024969Y011489D01*
X024871Y011506D01*
X024905Y011703D01*
X025323Y011528D02*
X025317Y011495D01*
X025449Y011472D01*
X025455Y011505D02*
X025428Y011543D01*
X025362Y011555D01*
X025323Y011528D01*
X025339Y011424D02*
X025404Y011412D01*
X025443Y011439D01*
X025455Y011505D01*
X025547Y011522D02*
X025645Y011505D01*
X025672Y011466D01*
X025661Y011401D01*
X025622Y011374D01*
X025523Y011391D01*
X025518Y011358D02*
X025547Y011522D01*
X025518Y011358D02*
X025545Y011319D01*
X025578Y011314D01*
X025741Y011353D02*
X025776Y011550D01*
X025764Y011484D02*
X025863Y011467D01*
X025890Y011428D01*
X025878Y011362D01*
X025840Y011335D01*
X025741Y011353D01*
X025959Y011314D02*
X026057Y011297D01*
X026096Y011324D01*
X026069Y011363D01*
X025970Y011380D01*
X025976Y011413D02*
X025959Y011314D01*
X025976Y011413D02*
X026015Y011440D01*
X026080Y011428D01*
X026199Y011407D02*
X026226Y011369D01*
X026325Y011351D01*
X026308Y011253D02*
X026209Y011270D01*
X026182Y011309D01*
X026188Y011342D01*
X026226Y011369D01*
X026199Y011407D02*
X026205Y011440D01*
X026244Y011467D01*
X026342Y011450D01*
X026308Y011253D01*
X015456Y018251D02*
X015422Y018218D01*
X015356Y018218D01*
X015322Y018251D01*
X015235Y018284D02*
X015135Y018284D01*
X015101Y018318D01*
X015101Y018384D01*
X015135Y018418D01*
X015235Y018418D01*
X015235Y018218D01*
X015168Y018284D02*
X015101Y018218D01*
X015322Y018384D02*
X015356Y018418D01*
X015422Y018418D01*
X015456Y018384D01*
X015456Y018251D01*
X014793Y018218D02*
X014659Y018351D01*
X014659Y018384D01*
X014693Y018418D01*
X014759Y018418D01*
X014793Y018384D01*
X014793Y018218D02*
X014659Y018218D01*
X014572Y018251D02*
X014438Y018384D01*
X014438Y018251D01*
X014472Y018218D01*
X014538Y018218D01*
X014572Y018251D01*
X014572Y018384D01*
X014538Y018418D01*
X014472Y018418D01*
X014438Y018384D01*
X014351Y018384D02*
X014317Y018418D01*
X014251Y018418D01*
X014217Y018384D01*
X014217Y018351D01*
X014251Y018318D01*
X014217Y018284D01*
X014217Y018251D01*
X014251Y018218D01*
X014317Y018218D01*
X014351Y018251D01*
X014284Y018318D02*
X014251Y018318D01*
X014130Y018384D02*
X014096Y018418D01*
X014030Y018418D01*
X013996Y018384D01*
X013996Y018351D01*
X014130Y018218D01*
X013996Y018218D01*
X013688Y018251D02*
X013654Y018218D01*
X013588Y018218D01*
X013554Y018251D01*
X013554Y018284D01*
X013588Y018318D01*
X013621Y018318D01*
X013588Y018318D02*
X013554Y018351D01*
X013554Y018384D01*
X013588Y018418D01*
X013654Y018418D01*
X013688Y018384D01*
X013467Y018418D02*
X013467Y018284D01*
X013400Y018218D01*
X013333Y018284D01*
X013333Y018418D01*
X013025Y018418D02*
X013025Y018218D01*
X012891Y018218D01*
X012804Y018218D02*
X012737Y018218D01*
X012770Y018218D02*
X012770Y018351D01*
X012804Y018351D01*
X012770Y018418D02*
X012770Y018451D01*
X012436Y018318D02*
X012436Y018251D01*
X012402Y018218D01*
X012302Y018218D01*
X012215Y018251D02*
X012181Y018218D01*
X012114Y018218D01*
X012081Y018251D01*
X012081Y018318D01*
X012114Y018351D01*
X012181Y018351D01*
X012215Y018318D01*
X012215Y018251D01*
X012302Y018351D02*
X012402Y018351D01*
X012436Y018318D01*
X011994Y018351D02*
X011960Y018351D01*
X011960Y018218D01*
X011927Y018218D02*
X011994Y018218D01*
X011846Y018218D02*
X011846Y018351D01*
X011746Y018351D01*
X011713Y018318D01*
X011713Y018218D01*
X011404Y018251D02*
X011371Y018218D01*
X011271Y018218D01*
X011183Y018251D02*
X011183Y018318D01*
X011150Y018351D01*
X011083Y018351D01*
X011050Y018318D01*
X011050Y018284D01*
X011183Y018284D01*
X011183Y018251D02*
X011150Y018218D01*
X011083Y018218D01*
X010962Y018218D02*
X010896Y018218D01*
X010929Y018218D02*
X010929Y018418D01*
X010962Y018418D01*
X010815Y018418D02*
X010782Y018418D01*
X010782Y018218D01*
X010815Y018218D02*
X010748Y018218D01*
X011271Y018351D02*
X011371Y018351D01*
X011404Y018318D01*
X011404Y018251D01*
X011960Y018418D02*
X011960Y018451D01*
X012289Y017851D02*
X012255Y017818D01*
X012255Y017751D01*
X012289Y017718D01*
X012389Y017718D01*
X012389Y017651D02*
X012389Y017851D01*
X012289Y017851D01*
X012476Y017851D02*
X012476Y017718D01*
X012576Y017718D01*
X012610Y017751D01*
X012610Y017851D01*
X012918Y017818D02*
X012918Y017784D01*
X013052Y017784D01*
X013052Y017751D02*
X013052Y017818D01*
X013018Y017851D01*
X012951Y017851D01*
X012918Y017818D01*
X012951Y017718D02*
X013018Y017718D01*
X013052Y017751D01*
X013139Y017718D02*
X013139Y017918D01*
X013139Y017851D02*
X013239Y017851D01*
X013273Y017818D01*
X013273Y017751D01*
X013239Y017718D01*
X013139Y017718D01*
X013353Y017718D02*
X013420Y017718D01*
X013386Y017718D02*
X013386Y017851D01*
X013420Y017851D01*
X013386Y017918D02*
X013386Y017951D01*
X013507Y017851D02*
X013607Y017851D01*
X013641Y017818D01*
X013607Y017784D01*
X013541Y017784D01*
X013507Y017751D01*
X013541Y017718D01*
X013641Y017718D01*
X013949Y017818D02*
X014083Y017818D01*
X014016Y017884D02*
X014016Y017751D01*
D11*
X015015Y017437D02*
X015062Y017486D01*
X015110Y017533D01*
X015162Y017577D01*
X015216Y017618D01*
X015272Y017656D01*
X015331Y017690D01*
X015391Y017721D01*
X015453Y017749D01*
X015516Y017772D01*
X015581Y017792D01*
X015647Y017809D01*
X015714Y017821D01*
X015781Y017830D01*
X015848Y017834D01*
X015916Y017835D01*
X015984Y017832D01*
X016051Y017824D01*
X016118Y017813D01*
X016184Y017798D01*
X016249Y017780D01*
X016313Y017757D01*
X016376Y017731D01*
X016437Y017701D01*
X016496Y017668D01*
X016553Y017631D01*
X016608Y017592D01*
X016660Y017549D01*
X016710Y017503D01*
X016757Y017454D01*
X016801Y017403D01*
X016842Y017349D01*
X016880Y017293D01*
X016915Y017234D01*
X016946Y017174D01*
X016974Y017112D01*
X016998Y017049D01*
X017018Y016984D01*
X017035Y016919D01*
X017047Y016852D01*
X017056Y016785D01*
X017061Y016717D01*
X017062Y016650D01*
X017063Y016649D02*
X017063Y015941D01*
X017063Y013185D02*
X017063Y012318D01*
X014385Y010665D01*
X011472Y010665D01*
X008795Y012318D01*
X008795Y013185D01*
X008795Y015941D02*
X008795Y016649D01*
X008797Y016717D01*
X008804Y016783D01*
X008814Y016850D01*
X008828Y016915D01*
X008845Y016980D01*
X008866Y017044D01*
X008891Y017106D01*
X008919Y017167D01*
X008951Y017226D01*
X008986Y017284D01*
X009024Y017339D01*
X009066Y017392D01*
X009110Y017442D01*
X009157Y017490D01*
X009207Y017535D01*
X009259Y017577D01*
X009313Y017616D01*
X009370Y017652D01*
X009428Y017685D01*
X009489Y017715D01*
X009551Y017740D01*
X009614Y017763D01*
X009679Y017781D01*
X009744Y017796D01*
X009810Y017808D01*
X009877Y017815D01*
X009944Y017819D01*
X010011Y017818D01*
X010078Y017814D01*
X010145Y017807D01*
X010211Y017795D01*
X010276Y017780D01*
X010340Y017761D01*
X010404Y017738D01*
X010465Y017712D01*
X010526Y017682D01*
X010584Y017649D01*
X010640Y017613D01*
X010695Y017573D01*
X010747Y017531D01*
X010796Y017485D01*
X010843Y017437D01*
X010803Y017476D02*
X010899Y017376D01*
X011000Y017280D01*
X011105Y017190D01*
X011215Y017104D01*
X011329Y017024D01*
X011446Y016950D01*
X011567Y016882D01*
X011691Y016819D01*
X011818Y016762D01*
X011947Y016712D01*
X012079Y016668D01*
X012213Y016630D01*
X012348Y016599D01*
X012485Y016574D01*
X012623Y016556D01*
X012761Y016545D01*
X012900Y016540D01*
X013039Y016542D01*
X013178Y016551D01*
X013316Y016566D01*
X013453Y016588D01*
X013589Y016617D01*
X013723Y016652D01*
X013856Y016694D01*
X013986Y016742D01*
X014114Y016796D01*
X014239Y016857D01*
X014362Y016923D01*
X014480Y016995D01*
X014595Y017073D01*
X014707Y017156D01*
X014814Y017245D01*
X014917Y017338D01*
X015015Y017437D01*
D12*
X011488Y006688D02*
X011488Y006538D01*
X011490Y006521D01*
X011494Y006504D01*
X011501Y006488D01*
X011511Y006474D01*
X011524Y006461D01*
X011538Y006451D01*
X011554Y006444D01*
X011571Y006440D01*
X011588Y006438D01*
X012288Y006438D01*
X012305Y006440D01*
X012322Y006444D01*
X012338Y006451D01*
X012352Y006461D01*
X012365Y006474D01*
X012375Y006488D01*
X012382Y006504D01*
X012386Y006521D01*
X012388Y006538D01*
X012388Y006688D01*
X012338Y006738D01*
X012338Y008638D01*
X012388Y008688D01*
X012388Y008838D01*
X012386Y008855D01*
X012382Y008872D01*
X012375Y008888D01*
X012365Y008902D01*
X012352Y008915D01*
X012338Y008925D01*
X012322Y008932D01*
X012305Y008936D01*
X012288Y008938D01*
X011588Y008938D01*
X011571Y008936D01*
X011554Y008932D01*
X011538Y008925D01*
X011524Y008915D01*
X011511Y008902D01*
X011501Y008888D01*
X011494Y008872D01*
X011490Y008855D01*
X011488Y008838D01*
X011488Y008688D01*
X011538Y008638D01*
X011538Y006738D01*
X011488Y006688D01*
D13*
X011938Y006268D03*
X011938Y009108D03*
M02*
